<?xml version="1.0" encoding="utf-8"?>
<COLLADA xmlns="http://www.collada.org/2005/11/COLLADASchema" version="1.4.1" xmlns:xsi="http://www.w3.org/2001/XMLSchema-instance">
  <asset>
    <contributor>
      <author>Blender User</author>
      <authoring_tool>Blender 4.5.4 LTS commit date:2025-10-27, commit time:12:46, hash:b3efe983cc58</authoring_tool>
    </contributor>
    <created>2025-11-14T17:15:12</created>
    <modified>2025-11-14T17:15:12</modified>
    <unit name="millimeter" meter="0.001"/>
    <up_axis>Z_UP</up_axis>
  </asset>
  <library_effects>
    <effect id="Black_PLA-effect">
      <profile_COMMON>
        <technique sid="common">
          <lambert>
            <emission>
              <color sid="emission">0 0 0 1</color>
            </emission>
            <diffuse>
              <color sid="diffuse">0.01232019 0.01232019 0.01232019 1</color>
            </diffuse>
            <index_of_refraction>
              <float sid="ior">1.5</float>
            </index_of_refraction>
          </lambert>
        </technique>
      </profile_COMMON>
    </effect>
    <effect id="White_PLA-effect">
      <profile_COMMON>
        <technique sid="common">
          <lambert>
            <emission>
              <color sid="emission">0 0 0 1</color>
            </emission>
            <diffuse>
              <color sid="diffuse">0.8 0.8 0.8 1</color>
            </diffuse>
            <index_of_refraction>
              <float sid="ior">1.5</float>
            </index_of_refraction>
          </lambert>
        </technique>
      </profile_COMMON>
    </effect>
  </library_effects>
  <library_images/>
  <library_materials>
    <material id="Black_PLA-material" name="Black PLA">
      <instance_effect url="#Black_PLA-effect"/>
    </material>
    <material id="White_PLA-material" name="White PLA">
      <instance_effect url="#White_PLA-effect"/>
    </material>
  </library_materials>
  <library_geometries>
    <geometry id="_-lower-body-with-slip-ring_001-mesh" name="1-lower-body-with-slip-ring.001">
      <mesh>
        <source id="_-lower-body-with-slip-ring_001-mesh-positions">
          <float_array id="_-lower-body-with-slip-ring_001-mesh-positions-array" count="102">91.60224 23.75828 -0.1894707 -36.51627 2.927124 -0.1894721 -30.01626 -49.27289 -0.1894721 -30.01626 -7.072876 -0.1894721 -32.51625 -7.072876 -0.1894721 -36.51627 -3.072881 -0.1894721 -30.01626 18.92713 -0.1894721 -30.01626 6.92712 -0.1894721 -32.51625 6.92712 -0.1894721 -35.01625 18.92713 -0.1894721 -35.01625 49.12711 -0.1894721 80.51383 49.12711 -0.1894721 90.69404 34.62138 -0.1894721 85.71372 7.427122 -0.1894721 85.70899 -7.772873 -0.1894721 91.60224 -23.9292 -0.1894736 90.68931 -34.77395 -0.1894721 80.51383 -49.27289 -0.1894721 -37.51625 51.62711 -2.689472 91.25144 -33.97286 -2.689472 91.60224 -23.9292 -2.71722 87.20234 -9.285477 -2.717228 91.60224 33.27167 -2.717236 -37.51625 16.42712 -2.689472 -32.51625 6.92712 -2.689472 -32.51625 -7.072876 -2.689472 -36.51627 -3.072881 -2.689472 -36.51627 2.927124 -2.689472 -32.51625 -51.77289 -2.689472 -32.51625 16.42712 -2.689472 91.60224 23.75828 -2.717236 78.7593 -51.77289 -2.689472 78.7593 51.62711 -2.689472 87.20234 9.114525 -2.717233</float_array>
          <technique_common>
            <accessor source="#_-lower-body-with-slip-ring_001-mesh-positions-array" count="34" stride="3">
              <param name="X" type="float"/>
              <param name="Y" type="float"/>
              <param name="Z" type="float"/>
            </accessor>
          </technique_common>
        </source>
        <source id="_-lower-body-with-slip-ring_001-mesh-normals">
          <float_array id="_-lower-body-with-slip-ring_001-mesh-normals-array" count="192">-0.7071051 0.7071085 0 -0.7071068 0 0.7071068 0 -0.7071068 0.7071068 0 1 0 0 -1 0 -1 0 0 -0.7071068 0 0.7071068 0 0 1 0 0.7071068 0.7071068 -0.7071051 -0.7071085 0 0 -0.7071057 0.7071079 -0.7071068 0 0.7071068 0.8185359 -0.5744553 -2.46585e-5 0.8193525 0.5732874 -0.001744568 0.9993906 -0.03490614 0 0.9577041 0.287755 0 0.861681 1.44657e-7 0.5074504 0.8939766 -0.3223408 0.3112912 0.9508753 0.07949733 0.2991929 -1.94356e-4 6.14407e-4 -0.9999998 -0.7071051 0.7071085 0 -0.7071068 0 0.7071068 0 -0.7071068 0.7071068 -1 0 0 -0.7071068 0 0.7071068 0 0 1 -2.13573e-7 1.49887e-7 1 1.80717e-7 0 1 0 0 1 0 0 1 -1.80507e-7 0 1 2.13014e-7 1.49494e-7 1 0 0 1 0 0 1 0 0 1 0 0 1 0 0 1 0 0 1 0 0 1 0 0 1 0 0.7071068 0.7071068 -0.7071051 -0.7071085 0 0 -0.7071057 0.7071079 -0.7071068 0 0.7071068 0.8185374 -0.5744534 -6.59577e-6 0.8184715 0.5744081 -0.0126394 0.9776509 -0.08230066 0.1934562 0.8867236 0.323445 0.3303096 0.860905 -2.67913e-4 0.5087656 0.9577043 -0.2877544 0 1 0 0 0 0 -1 0 0 -1 0 0 -1 0.004142761 -0.002907395 -0.9999872 -0.001307606 -3.93418e-4 -0.9999991 -2.43022e-4 -6.04976e-4 -0.9999998 -2.31841e-4 0 -1 0 0 -1 -2.31885e-4 0 -1 -2.3188e-4 -2.85086e-7 -1 -0.002161741 0 -0.9999977 -0.001308739 3.93079e-4 -0.9999991 0 0 -1</float_array>
          <technique_common>
            <accessor source="#_-lower-body-with-slip-ring_001-mesh-normals-array" count="64" stride="3">
              <param name="X" type="float"/>
              <param name="Y" type="float"/>
              <param name="Z" type="float"/>
            </accessor>
          </technique_common>
        </source>
        <source id="_-lower-body-with-slip-ring_001-mesh-map-0">
          <float_array id="_-lower-body-with-slip-ring_001-mesh-map-0-array" count="384">0 0 0 0 0 0 0 0 0 0 0 0 0 0 0 0 0 0 0 0 0 0 0 0 0 0 0 0 0 0 0 0 0 0 0 0 0 0 0 0 0 0 0 0 0 0 0 0 0 0 0 0 0 0 0 0 0 0 0 0 0 0 0 0 0 0 0 0 0 0 0 0 0 0 0 0 0 0 0 0 0 0 0 0 0 0 0 0 0 0 0 0 0 0 0 0 0 0 0 0 0 0 0 0 0 0 0 0 0 0 0 0 0 0 0 0 0 0 0 0 0 0 0 0 0 0 0 0 0 0 0 0 0 0 0 0 0 0 0 0 0 0 0 0 0 0 0 0 0 0 0 0 0 0 0 0 0 0 0 0 0 0 0 0 0 0 0 0 0 0 0 0 0 0 0 0 0 0 0 0 0 0 0 0 0 0 0 0 0 0 0 0 0 0 0 0 0 0 0 0 0 0 0 0 0 0 0 0 0 0 0 0 0 0 0 0 0 0 0 0 0 0 0 0 0 0 0 0 0 0 0 0 0 0 0 0 0 0 0 0 0 0 0 0 0 0 0 0 0 0 0 0 0 0 0 0 0 0 0 0 0 0 0 0 0 0 0 0 0 0 0 0 0 0 0 0 0 0 0 0 0 0 0 0 0 0 0 0 0 0 0 0 0 0 0 0 0 0 0 0 0 0 0 0 0 0 0 0 0 0 0 0 0 0 0 0 0 0 0 0 0 0 0 0 0 0 0 0 0 0 0 0 0 0 0 0 0 0 0 0 0 0 0 0 0 0 0 0 0 0 0 0 0 0 0 0 0 0 0 0 0 0 0 0 0 0 0 0 0 0 0 0 0 0 0 0 0 0 0 0 0 0 0 0</float_array>
          <technique_common>
            <accessor source="#_-lower-body-with-slip-ring_001-mesh-map-0-array" count="192" stride="2">
              <param name="S" type="float"/>
              <param name="T" type="float"/>
            </accessor>
          </technique_common>
        </source>
        <vertices id="_-lower-body-with-slip-ring_001-mesh-vertices">
          <input semantic="POSITION" source="#_-lower-body-with-slip-ring_001-mesh-positions"/>
        </vertices>
        <triangles material="Black_PLA-material" count="64">
          <input semantic="VERTEX" source="#_-lower-body-with-slip-ring_001-mesh-vertices" offset="0"/>
          <input semantic="NORMAL" source="#_-lower-body-with-slip-ring_001-mesh-normals" offset="1"/>
          <input semantic="TEXCOORD" source="#_-lower-body-with-slip-ring_001-mesh-map-0" offset="2" set="0"/>
          <p>27 0 0 8 0 1 24 0 2 9 1 3 18 1 4 23 1 5 2 2 6 31 2 7 17 2 8 7 3 9 24 3 10 8 3 11 25 4 12 3 4 13 4 4 14 27 5 15 5 5 16 1 5 17 29 6 18 7 6 19 6 6 20 6 7 21 7 7 22 13 7 23 32 8 24 10 8 25 11 8 26 4 9 27 26 9 28 25 9 29 29 10 30 9 10 31 23 10 32 25 11 33 2 11 34 3 11 35 17 12 36 19 12 37 16 12 38 11 13 39 22 13 40 32 13 41 15 14 42 19 14 43 20 14 44 21 15 45 15 15 46 20 15 47 13 16 48 21 16 49 33 16 50 33 17 51 0 17 52 13 17 53 0 18 54 22 18 55 12 18 56 33 19 57 29 19 58 32 19 59 27 20 60 1 20 61 8 20 62 9 21 63 10 21 64 18 21 65 2 22 66 28 22 67 31 22 68 27 23 69 26 23 70 5 23 71 29 24 72 24 24 73 7 24 74 3 25 75 2 25 76 17 25 77 17 26 78 16 26 79 15 26 80 17 27 81 15 27 82 14 27 83 5 28 84 4 28 85 3 28 86 3 29 87 17 29 88 14 29 89 13 30 90 0 30 91 11 30 92 0 31 93 12 31 94 11 31 95 3 32 96 14 32 97 13 32 98 1 33 99 5 33 100 3 33 101 7 34 102 8 34 103 1 34 104 10 35 105 9 35 106 6 35 107 7 36 108 1 36 109 3 36 110 11 37 111 10 37 112 6 37 113 7 38 114 3 38 115 13 38 116 11 39 117 6 39 118 13 39 119 32 40 120 18 40 121 10 40 122 4 41 123 5 41 124 26 41 125 29 42 126 6 42 127 9 42 128 25 43 129 28 43 130 2 43 131 17 44 132 31 44 133 19 44 134 11 45 135 12 45 136 22 45 137 15 46 138 16 46 139 19 46 140 21 47 141 14 47 142 15 47 143 13 48 144 14 48 145 21 48 146 33 49 147 30 49 148 0 49 149 0 50 150 30 50 151 22 50 152 25 51 153 26 51 154 27 51 155 25 52 156 27 52 157 24 52 158 31 53 159 28 53 160 25 53 161 20 54 162 19 54 163 31 54 164 21 55 165 20 55 166 31 55 167 31 56 168 25 56 169 21 56 170 25 57 171 24 57 172 21 57 173 29 58 174 23 58 175 18 58 176 24 59 177 29 59 178 33 59 179 21 60 180 24 60 181 33 60 182 22 61 183 30 61 184 32 61 185 30 62 186 33 62 187 32 62 188 18 63 189 32 63 190 29 63 191</p>
        </triangles>
      </mesh>
    </geometry>
    <geometry id="_-main-boom-holder_002-mesh" name="9-main-boom-holder.002">
      <mesh>
        <source id="_-main-boom-holder_002-mesh-positions">
          <float_array id="_-main-boom-holder_002-mesh-positions-array" count="150">-10.57551 -7.791405 11.72748 -7.57551 -4.79145 11.79353 -4.175512 -7.191429 11.80466 -8.175515 -10.19138 11.82918 15.02448 -10.19138 11.81859 15.02448 -10.19138 -13.13225 11.02449 -7.191429 11.80466 14.42449 19.9086 -10.13225 14.42449 23.20858 -10.13225 10.42449 23.20858 -10.13225 -7.57551 23.20858 -10.13225 -7.57551 19.9086 -10.13225 -3.575514 23.20858 -10.13225 0.4244871 27.2086 -10.13225 6.424486 27.2086 -10.13225 -7.57551 -1.79142 -13.13225 -10.57551 -7.791405 -13.13225 -7.57551 19.9086 -13.13225 -10.57551 23.20858 -13.13225 -3.575514 23.20858 -13.13225 17.4245 -7.791405 -13.13225 14.42449 -1.79142 -13.13225 0.4244871 27.2086 -13.13225 6.424486 27.2086 -13.13225 10.42449 23.20858 -13.13225 14.42449 19.9086 -13.13225 17.4245 23.20858 -13.13225 17.4245 23.2407 -0.1322517 17.4245 -7.791405 11.80745 14.42449 -4.79145 11.79353 14.42449 -4.79145 -10.13225 14.42449 23.2407 -0.1322517 13.42448 -5.791397 -10.13225 -6.575516 -5.791397 -10.13225 -7.57551 -4.79145 -10.13225 -10.57551 23.2407 -0.1322517 -7.57551 23.2407 -0.1322517 -8.175516 -10.19139 -13.13225 12.90316 -28.79147 11.8254 15.02448 -26.67015 11.8254 15.02448 -26.67015 -13.13225 12.90316 -28.79147 -13.13225 -6.054193 -28.79147 -13.13225 -8.175515 -26.67015 -13.13225 -8.175515 -26.67015 11.8254 -6.054193 -28.79147 11.8254 17.4245 18.56278 11.70076 14.42449 18.56278 11.70076 -10.57551 18.56278 11.70076 -7.57551 18.56278 11.70076</float_array>
          <technique_common>
            <accessor source="#_-main-boom-holder_002-mesh-positions-array" count="50" stride="3">
              <param name="X" type="float"/>
              <param name="Y" type="float"/>
              <param name="Z" type="float"/>
            </accessor>
          </technique_common>
        </source>
        <source id="_-main-boom-holder_002-mesh-normals">
          <float_array id="_-main-boom-holder_002-mesh-normals-array" count="300">0 1 0 0 -1 0 -0.002470672 0.9999939 -0.002470731 -0.7071042 -0.7071095 0 0 0 1 0.7071076 0.7071061 0 0 0.9299674 0.3676422 1 0 0 0.7071012 -0.7071124 0 -1 0 0 -0.7070866 0.707127 0 0 0.9979697 0.06369119 -1 0 0 0 -1 0 0 1 0 -0.7071081 0.7071056 0 0.70709 0.7071236 0 0 9.6003e-4 0.9999995 -0.7071068 -0.7071068 0 0.7071068 -0.7071068 0 1 0 0 -1 0 0 0 0.9299674 0.3676422 1 0 0 0 0.6000022 0.7999984 0 0 -1 0 0 -1 0 1 0 0.002470731 0.9999939 -0.002470731 0 0.9999949 -0.003211915 0 -1 0 0 1 0 0 1 0 0 0.9999949 -0.003211915 -0.7071046 -0.707109 0 0 0 1 0 0 1 0 0 1 0 0 1 0 0 1 0.7071076 0.7071061 0 0 0.9299674 0.3676422 1 0 0 0.7071012 -0.7071124 0 -1 0 0 -0.5766693 0.8169041 -0.01095461 0 0.9979697 0.06369119 -1 0 0 -1 0 0 0 -1 0 0 1 0 -0.7071081 0.7071056 0 0.5766693 0.8169041 -0.01095485 -0.02302598 0.001013398 0.9997344 -0.03217828 0.0101726 0.9994304 0.006299972 -2.29114e-4 0.9999801 8.83625e-4 8.83176e-4 0.9999992 0 9.6003e-4 0.9999995 -8.83212e-4 8.83212e-4 0.9999992 1.25676e-6 0.004639923 0.9999892 -5.90541e-4 0.004048109 0.9999916 -0.003170788 4.13442e-4 0.9999949 0.001284718 0.006457984 0.9999783 0 0.003972291 0.9999921 0 0.003972291 0.9999921 -1.1667e-6 0.004639625 0.9999892 -0.7071068 -0.7071068 0 0.7071068 -0.7071068 0 1 0 0 1 0 0 1 0 0 1 0 0 1 0 0 -1 0 0 -1 0 0 -1 0 0 -1 0 0 -1 0 0 0 0.9299674 0.3676422 1 0 0 1 0 0 0.5773299 0.5773575 0.5773634 0 0.6000022 0.7999984 -0.5773263 0.5773593 0.5773652 0 0 -1 0 0 -1 0 0 -1 0 0 -1 0 0 -1 0 0 -1 0 0 -1 0 0 -1 0 0 -1 0 0 -1 0 0 -1 0 0 -1 0 0 -1 0 0 -1 0 0 -1 0 0 -1</float_array>
          <technique_common>
            <accessor source="#_-main-boom-holder_002-mesh-normals-array" count="100" stride="3">
              <param name="X" type="float"/>
              <param name="Y" type="float"/>
              <param name="Z" type="float"/>
            </accessor>
          </technique_common>
        </source>
        <vertices id="_-main-boom-holder_002-mesh-vertices">
          <input semantic="POSITION" source="#_-main-boom-holder_002-mesh-positions"/>
        </vertices>
        <triangles material="Black_PLA-material" count="100">
          <input semantic="VERTEX" source="#_-main-boom-holder_002-mesh-vertices" offset="0"/>
          <input semantic="NORMAL" source="#_-main-boom-holder_002-mesh-normals" offset="1"/>
          <p>10 0 19 0 18 0 45 1 41 1 38 1 26 2 8 2 27 2 0 3 37 3 3 3 12 4 11 4 9 4 9 5 23 5 14 5 48 6 36 6 35 6 4 7 40 7 5 7 5 8 28 8 4 8 37 9 44 9 3 9 32 10 29 10 30 10 2 11 32 11 33 11 0 12 35 12 16 12 17 13 7 13 11 13 13 14 23 14 22 14 12 15 22 15 19 15 1 16 33 16 34 16 6 17 2 17 45 17 45 18 43 18 42 18 41 19 39 19 38 19 34 20 11 20 36 20 30 21 31 21 7 21 47 22 27 22 31 22 20 23 27 23 28 23 21 24 15 24 33 24 24 25 25 25 19 25 15 26 21 26 37 26 10 27 12 27 19 27 18 28 35 28 10 28 35 29 36 29 10 29 45 30 42 30 41 30 26 31 24 31 8 31 24 32 9 32 8 32 8 33 31 33 27 33 0 34 16 34 37 34 14 35 13 35 12 35 12 36 10 36 11 36 11 37 7 37 9 37 7 38 8 38 9 38 9 39 14 39 12 39 9 40 24 40 23 40 48 41 49 41 36 41 4 42 39 42 40 42 5 43 20 43 28 43 37 44 43 44 44 44 32 45 6 45 29 45 2 46 6 46 32 46 48 47 35 47 0 47 35 48 18 48 16 48 17 49 25 49 7 49 13 50 14 50 23 50 12 51 13 51 22 51 1 52 2 52 33 52 48 53 0 53 1 53 0 54 3 54 1 54 3 55 44 55 2 55 44 56 45 56 2 56 45 57 38 57 6 57 38 58 39 58 6 58 4 59 28 59 29 59 28 60 46 60 29 60 39 61 4 61 6 61 1 62 3 62 2 62 1 63 49 63 48 63 46 64 47 64 29 64 4 65 29 65 6 65 45 66 44 66 43 66 41 67 40 67 39 67 49 68 1 68 34 68 34 69 15 69 11 69 15 70 17 70 11 70 11 71 10 71 36 71 36 72 49 72 34 72 7 73 25 73 21 73 21 74 30 74 7 74 30 75 29 75 47 75 31 76 30 76 47 76 31 77 8 77 7 77 47 78 46 78 27 78 26 79 27 79 20 79 27 80 46 80 28 80 34 81 33 81 15 81 33 82 32 82 21 82 32 83 30 83 21 83 22 84 23 84 19 84 23 85 24 85 19 85 24 86 26 86 25 86 25 87 17 87 19 87 17 88 18 88 19 88 21 89 25 89 26 89 26 90 20 90 21 90 20 91 5 91 21 91 5 92 40 92 41 92 41 93 42 93 37 93 42 94 43 94 37 94 37 95 16 95 15 95 16 96 18 96 15 96 5 97 41 97 37 97 21 98 5 98 37 98 18 99 17 99 15 99</p>
        </triangles>
      </mesh>
    </geometry>
    <geometry id="_1-guardrail_001-mesh" name="31-guardrail.001">
      <mesh>
        <source id="_1-guardrail_001-mesh-positions">
          <float_array id="_1-guardrail_001-mesh-positions-array" count="84">19.6197 -43.86949 -2.906448 -24.9124 -43.86949 11.09357 19.6197 -43.86949 11.09357 -28.91242 -43.86949 -2.906448 -28.91242 -43.86949 6.951447 -28.91242 -45.8695 6.951447 -28.91242 -45.8695 -2.906448 20.66103 -45.8695 -2.906448 20.66103 -45.8695 11.09357 -24.9124 -45.8695 11.09357 29.7216 -32.92564 -2.906448 29.7216 -32.92564 11.09357 29.7216 32.01858 -2.906448 29.7216 32.01858 11.09357 20.66103 44.96246 11.09357 -24.9124 44.96246 11.09357 20.66103 44.96246 -2.906448 -28.91242 44.96246 -2.906448 -28.91242 44.96246 6.951447 -28.91242 42.96245 6.951447 -28.91242 42.96245 -2.906448 19.6197 42.96245 -2.906448 -24.9124 42.96245 11.09357 19.6197 42.96245 11.09357 27.72167 31.38813 11.09357 27.72167 31.38813 -2.906448 27.72167 -32.29518 -2.906448 27.72167 -32.29518 11.09357</float_array>
          <technique_common>
            <accessor source="#_1-guardrail_001-mesh-positions-array" count="28" stride="3">
              <param name="X" type="float"/>
              <param name="Y" type="float"/>
              <param name="Z" type="float"/>
            </accessor>
          </technique_common>
        </source>
        <source id="_1-guardrail_001-mesh-normals">
          <float_array id="_1-guardrail_001-mesh-normals-array" count="156">-0.8192336 0.5734599 0 0 -1 0 0.8192362 0.5734562 0 0 1 0 -1 0 0 1 0 0 0 1 0 -0.7193384 0 0.6946598 0 -1 0 -1 0 0 -1 0 0 0 0 -1 -0.7193384 0 0.6946598 0 0 1 -0.819234 -0.5734595 0 0.8192358 -0.5734568 0 -0.8192336 0.5734599 0 0 -1 0 0 -1 0 0.8192362 0.5734562 0 0 1 0 0 1 0 -1 0 0 1 0 0 0 1 0 0 1 0 -0.7193384 0 0.6946598 0 -1 0 0 -1 0 -1 0 0 -1 0 0 0 0 -1 0 0 -1 0 0 -1 0 0 -1 0 0 -1 0 0 -1 0 0 -1 0 0 -1 0 0 -1 -0.7193384 0 0.6946598 0 0 1 0 0 1 0 0 1 0 0 1 0 0 1 0 0 1 0 0 1 0 0 1 0 0 1 -0.819234 -0.5734595 0 0.8192358 -0.5734568 0</float_array>
          <technique_common>
            <accessor source="#_1-guardrail_001-mesh-normals-array" count="52" stride="3">
              <param name="X" type="float"/>
              <param name="Y" type="float"/>
              <param name="Z" type="float"/>
            </accessor>
          </technique_common>
        </source>
        <vertices id="_1-guardrail_001-mesh-vertices">
          <input semantic="POSITION" source="#_1-guardrail_001-mesh-positions"/>
        </vertices>
        <triangles material="Black_PLA-material" count="52">
          <input semantic="VERTEX" source="#_1-guardrail_001-mesh-vertices" offset="0"/>
          <input semantic="NORMAL" source="#_1-guardrail_001-mesh-normals" offset="1"/>
          <p>26 0 2 0 27 0 7 1 8 1 9 1 14 2 12 2 16 2 15 3 14 3 16 3 26 4 24 4 25 4 10 5 13 5 11 5 3 6 1 6 0 6 1 7 5 7 9 7 21 8 23 8 22 8 20 9 18 9 17 9 6 10 4 10 3 10 26 11 25 11 12 11 19 12 15 12 18 12 27 13 11 13 13 13 21 14 24 14 23 14 7 15 11 15 8 15 26 16 0 16 2 16 5 17 6 17 9 17 6 18 7 18 9 18 14 19 13 19 12 19 16 20 17 20 15 20 17 21 18 21 15 21 26 22 27 22 24 22 10 23 12 23 13 23 4 24 1 24 3 24 1 25 2 25 0 25 1 26 4 26 5 26 22 27 19 27 20 27 20 28 21 28 22 28 20 29 19 29 18 29 6 30 5 30 4 30 21 31 20 31 17 31 7 32 6 32 0 32 6 33 3 33 0 33 21 34 17 34 16 34 25 35 21 35 12 35 21 36 16 36 12 36 10 37 7 37 0 37 10 38 0 38 26 38 10 39 26 39 12 39 19 40 22 40 15 40 15 41 22 41 23 41 14 42 15 42 23 42 1 43 9 43 2 43 9 44 8 44 2 44 13 45 14 45 23 45 13 46 23 46 24 46 2 47 8 47 11 47 13 48 24 48 27 48 27 49 2 49 11 49 21 50 25 50 24 50 7 51 10 51 11 51</p>
        </triangles>
      </mesh>
    </geometry>
    <geometry id="_8-step_001-mesh" name="28-step.001">
      <mesh>
        <source id="_8-step_001-mesh-positions">
          <float_array id="_8-step_001-mesh-positions-array" count="30">-16.78606 -13.43686 14.85126 18.21394 -13.43686 14.85126 18.21394 20.56312 14.85126 -16.78606 -13.43686 2.851261 18.21394 20.56312 -7.148739 -6.78606 20.56312 -7.148739 -16.78606 20.56312 14.85126 -16.78606 20.56312 2.851261 18.21394 -13.43686 -7.148739 -6.78606 -13.43686 -7.148739</float_array>
          <technique_common>
            <accessor source="#_8-step_001-mesh-positions-array" count="10" stride="3">
              <param name="X" type="float"/>
              <param name="Y" type="float"/>
              <param name="Z" type="float"/>
            </accessor>
          </technique_common>
        </source>
        <source id="_8-step_001-mesh-normals">
          <float_array id="_8-step_001-mesh-normals-array" count="48">0 0 -1 0 -1 0 -1 0 0 -0.7071068 0 -0.7071068 1 0 0 0 1 0 0 0 1 0 0 -1 0 -1 0 0 -1 0 -1 0 0 -0.7071068 0 -0.7071068 1 0 0 0 1 0 0 1 0 0 0 1</float_array>
          <technique_common>
            <accessor source="#_8-step_001-mesh-normals-array" count="16" stride="3">
              <param name="X" type="float"/>
              <param name="Y" type="float"/>
              <param name="Z" type="float"/>
            </accessor>
          </technique_common>
        </source>
        <vertices id="_8-step_001-mesh-vertices">
          <input semantic="POSITION" source="#_8-step_001-mesh-positions"/>
        </vertices>
        <triangles material="White_PLA-material" count="16">
          <input semantic="VERTEX" source="#_8-step_001-mesh-vertices" offset="0"/>
          <input semantic="NORMAL" source="#_8-step_001-mesh-normals" offset="1"/>
          <p>5 0 8 0 9 0 0 1 3 1 9 1 0 2 7 2 3 2 5 3 3 3 7 3 2 4 8 4 4 4 6 5 5 5 7 5 2 6 0 6 1 6 5 7 4 7 8 7 8 8 1 8 9 8 1 9 0 9 9 9 0 10 6 10 7 10 5 11 9 11 3 11 2 12 1 12 8 12 6 13 2 13 5 13 2 14 4 14 5 14 2 15 6 15 0 15</p>
        </triangles>
      </mesh>
    </geometry>
    <geometry id="_7-rear-cover_001-mesh" name="27-rear-cover.001">
      <mesh>
        <source id="_7-rear-cover_001-mesh-positions">
          <float_array id="_7-rear-cover_001-mesh-positions-array" count="120">-43.08716 -11.8062 14.5945 19.35084 -49.80617 -10.75499 19.35108 -49.80617 14.5945 19.29371 -43.80618 -17.9055 -56.08714 -11.80621 14.59451 -56.08714 -49.80617 14.5945 32.19104 35.25096 14.5945 27.79114 11.09381 14.5945 32.19104 -21.94991 14.5945 27.79114 -7.306188 14.5945 32.19104 -31.46331 14.5945 32.19104 25.73757 14.5945 19.35108 53.59383 14.5945 -45.08716 53.59383 14.5945 -50.08716 -43.80618 -17.9055 -43.08716 -11.80619 -17.9055 -45.08716 47.59381 -17.9055 -44.08716 17.39382 -17.9055 -39.08715 -7.806176 -17.9055 -39.08715 12.39382 -17.9055 -50.08714 -11.80619 -17.9055 19.29371 47.59381 -17.9055 34.19098 32.3934 -10.75499 34.19098 -28.60618 -10.7545 28.1911 34.8833 -17.9055 28.1911 -31.09565 -17.9055 19.35084 53.59383 -10.75499 -56.08714 -11.8062 -10.75499 -56.08714 -49.80617 -10.75499 34.19098 11.09381 1.594498 34.19098 32.39382 6.594501 34.19098 -28.60618 6.594501 34.19098 -7.306188 1.594498 34.19098 32.39382 12.5945 34.19098 -28.60618 12.5945 -45.08716 53.59383 -10.75499 -45.08716 47.59381 14.5945 -44.08716 17.39381 14.5945 -39.08715 -7.806181 14.5945 -39.08715 12.39381 14.5945</float_array>
          <technique_common>
            <accessor source="#_7-rear-cover_001-mesh-positions-array" count="40" stride="3">
              <param name="X" type="float"/>
              <param name="Y" type="float"/>
              <param name="Z" type="float"/>
            </accessor>
          </technique_common>
        </source>
        <source id="_7-rear-cover_001-mesh-normals">
          <float_array id="_7-rear-cover_001-mesh-normals-array" count="228">0.7660505 0 -0.6427804 0.9776935 0.04799968 0.2044785 0.9577049 -0.2877522 0 1 0 0 0 1 0 0.7071176 0 0.707096 0.7071176 0 0.707096 0 0.7660428 -0.6427896 -0.7660449 0 -0.6427871 0.8192293 -0.5734662 0 0.7363266 0.515423 -0.4383631 0 -0.7660449 -0.6427871 0.736326 -0.5154235 -0.4383635 0 -1 0 0 0 -1 0.8192394 0.5734515 0 -1 0 0 -0.7071068 0.7071068 0 -0.7071062 -0.7071073 -1.24495e-7 -0.9994522 -0.0330944 0 -1 0 0 -1 0 0 0.8971751 0 0.4416751 0 0 1 -1.3624e-7 1 8.19281e-7 0.7660726 -5.06464e-6 -0.642754 0.866253 0.2602772 0.4264523 0.9577051 0.2877517 0 0.8662531 -0.2602767 0.4264523 0.9776935 -0.04799968 0.2044786 1 0 0 1 0 0 1 0 0 0 1 0 0 0.7660428 -0.6427895 -0.7660439 4.56598e-7 -0.6427884 0.8192391 -0.5734521 0 0.8192328 -0.5734611 -4.77044e-6 0.8192323 -0.5734618 -7.89002e-6 0.7363175 0.5154241 -0.4383772 0 -0.7660449 -0.6427872 0.7363189 -0.5154243 -0.4383746 0 -1 0 0 0 -1 0 0 -1 0 0 -1 0 0 -1 0 0 -1 0 0 -1 0 0 -1 0 0 -1 0.8192349 0.5734582 -1.38697e-5 0.8192326 0.5734615 -7.89002e-6 0.8192331 0.5734607 -4.85562e-6 -1 0 0 -0.7071068 0.7071068 0 -0.7071062 -0.7071074 0 -0.9994522 -0.0330944 0 -1 -1.27156e-6 -3.00968e-7 -1 0 0 0.8971751 0 0.4416751 0 0 1 0 0 1 0 -6.3578e-7 1 0 0 1 0 0 1 0 0 1 0 0 1 0 0 1 0 0 1 0 0 1 7.33597e-7 -1.5058e-7 1 0 0 1 0 0 1 -7.33597e-7 1 2.63347e-7 -5.06176e-7 1 1.46719e-7</float_array>
          <technique_common>
            <accessor source="#_7-rear-cover_001-mesh-normals-array" count="76" stride="3">
              <param name="X" type="float"/>
              <param name="Y" type="float"/>
              <param name="Z" type="float"/>
            </accessor>
          </technique_common>
        </source>
        <vertices id="_7-rear-cover_001-mesh-vertices">
          <input semantic="POSITION" source="#_7-rear-cover_001-mesh-positions"/>
        </vertices>
        <triangles material="White_PLA-material" count="76">
          <input semantic="VERTEX" source="#_7-rear-cover_001-mesh-vertices" offset="0"/>
          <input semantic="NORMAL" source="#_7-rear-cover_001-mesh-normals" offset="1"/>
          <p>22 0 25 0 24 0 8 1 31 1 32 1 30 2 33 2 11 2 29 3 32 3 23 3 13 4 26 4 35 4 6 5 11 5 33 5 10 6 34 6 8 6 35 7 21 7 16 7 27 8 14 8 28 8 1 9 23 9 31 9 24 10 26 10 22 10 1 11 14 11 3 11 1 12 25 12 23 12 1 13 5 13 28 13 24 14 18 14 19 14 6 15 33 15 30 15 18 16 39 16 19 16 15 17 38 17 18 17 19 18 37 18 17 18 17 19 36 19 16 19 36 20 35 20 16 20 28 21 4 21 27 21 29 22 9 22 32 22 38 23 0 23 2 23 15 24 20 24 27 24 22 25 23 25 25 25 32 26 9 26 8 26 8 27 34 27 31 27 11 28 7 28 29 28 29 29 30 29 11 29 32 30 31 30 23 30 23 31 22 31 29 31 22 32 30 32 29 32 13 33 12 33 26 33 35 34 26 34 21 34 27 35 20 35 14 35 31 36 34 36 10 36 10 37 2 37 31 37 2 38 1 38 31 38 24 39 21 39 26 39 1 40 28 40 14 40 1 41 3 41 25 41 1 42 2 42 5 42 17 43 16 43 19 43 16 44 21 44 19 44 21 45 24 45 19 45 24 46 25 46 18 46 25 47 3 47 18 47 3 48 14 48 18 48 14 49 20 49 15 49 14 50 15 50 18 50 30 51 22 51 26 51 26 52 12 52 30 52 12 53 6 53 30 53 18 54 38 54 39 54 15 55 0 55 38 55 19 56 39 56 37 56 17 57 37 57 36 57 36 58 13 58 35 58 28 59 5 59 4 59 29 60 7 60 9 60 7 61 11 61 12 61 11 62 6 62 12 62 12 63 13 63 36 63 7 64 12 64 39 64 36 65 37 65 39 65 36 66 39 66 12 66 10 67 8 67 2 67 8 68 9 68 2 68 9 69 7 69 38 69 7 70 39 70 38 70 4 71 5 71 0 71 5 72 2 72 0 72 2 73 9 73 38 73 27 74 4 74 0 74 0 75 15 75 27 75</p>
        </triangles>
      </mesh>
    </geometry>
    <geometry id="_4-cab_001-mesh" name="24-cab.001">
      <mesh>
        <source id="_4-cab_001-mesh-positions">
          <float_array id="_4-cab_001-mesh-positions-array" count="150">-16.77338 -18.34535 -21.90025 -12.90411 -18.34535 -19.50832 -12.90411 -17.54535 -19.50832 -16.45281 -17.54535 -21.70212 -16.45281 -7.545347 -21.70212 -16.77338 16.85466 -21.90025 -12.90411 16.05468 -19.50832 -12.90411 16.85466 -19.50832 -16.45281 16.05468 -21.70212 -16.45281 6.054659 -21.70212 -12.90411 6.054659 -19.50832 -12.90411 -7.545347 -19.50832 -13.88933 6.054659 -14.44006 -14.45693 8.190033 -11.52015 -14.97122 12.95921 -11.08867 -14.97122 12.96188 -11.08867 -12.90173 6.054659 -19.52058 -12.90173 -7.545347 -19.52058 -15.43766 6.054659 -14.43004 -18.11564 -18.34535 7.301392 -14.36495 -17.54535 -11.99332 -14.57432 -16.47418 -10.91627 -15.43766 -7.545347 -14.43004 38.30551 16.85466 -0.6447601 38.30551 16.85466 31.85524 38.30551 -18.34535 -0.6447601 38.30551 -18.34535 31.85525 33.98727 -18.34535 -13.96146 27.61383 -18.34535 -22.8573 27.61383 16.85466 -22.8573 33.98727 16.85466 -13.96146 -18.11564 16.85466 7.301392 -14.57432 14.98351 -10.91627 -14.36495 16.05468 -11.99332 -13.3598 -18.34535 31.85524 -13.3598 16.85466 31.85524 -18.11564 16.85466 19.67041 -18.11564 -18.34535 19.67041 -15.68413 16.85466 -22.8573 -15.68413 -18.34535 -22.8573 -17.61423 -17.07139 -22.8573 -17.61423 15.58074 -22.8573 -15.0948 -17.54535 -11.97401 -15.0948 16.05468 -11.97401 -15.03126 -9.671526 -11.51885 -14.94577 -16.47418 -10.9064 -14.94577 14.98351 -10.9064 -15.03126 8.190033 -11.51885 -13.89128 -7.545347 -14.43004 -14.45718 -9.671526 -11.51885</float_array>
          <technique_common>
            <accessor source="#_4-cab_001-mesh-positions-array" count="50" stride="3">
              <param name="X" type="float"/>
              <param name="Y" type="float"/>
              <param name="Z" type="float"/>
            </accessor>
          </technique_common>
        </source>
        <source id="_4-cab_001-mesh-normals">
          <float_array id="_4-cab_001-mesh-normals-array" count="288">-0.5257568 0 0.8506349 0.01684713 -0.08824086 0.9959567 0 -1 0 0.9512374 0 -0.3084598 -0.9816254 0 -0.190818 0 0 1 0.9816345 0 0.1907716 0 1 0 0.018772 0.7071137 0.7068507 0.8128995 0 -0.582404 -0.9315573 0 0.3635944 0.003822207 -0.8068208 0.5907839 -0.9903965 -1.09471e-6 0.138256 0 0 -1 -1 0 0 -0.4667167 0.7071184 -0.5311864 -0.4667237 -0.7071079 -0.5311944 -0.7512374 0 0.6600321 1 0 0 -0.9903963 0 0.1382575 0 1 0 0 -1 0 0.01870936 -0.7070979 0.7068681 -0.9903966 3.41588e-7 0.138255 0 -1 0 0 0.8075532 0.5897948 0.02644014 0.08996653 0.9955938 0 1 0 -0.5258266 3.8523e-5 0.8505918 -0.5258328 0 0.8505879 -0.5258329 0 0.8505879 -0.5258266 -3.86222e-5 0.8505918 -0.5257568 0 0.8506349 -0.5257568 0 0.8506349 -0.5258329 0 0.8505879 -0.5257569 0 0.8506349 -0.5258329 0 0.8505879 0.0264399 -0.09009224 0.9955824 0.002249121 -0.08981406 0.9959561 0 -1 0 0 -1 0 0 -1 0 0 -1 0 0 -1 0 0 -1 0 0 -1 0 0.9512374 0 -0.3084598 -0.9816255 0 -0.1908178 -0.9816255 1.92056e-6 -0.1908175 -0.9816254 0 -0.1908178 -0.9816255 -1.92051e-6 -0.1908175 -0.9816256 -2.82635e-6 -0.1908176 -0.9816256 2.82636e-6 -0.1908176 -0.9816256 -2.34741e-7 -0.1908173 -0.9816256 4.26906e-7 -0.1908173 -0.9816255 0 -0.1908175 -0.9816256 0 -0.1908174 -0.9816255 0 -0.1908177 -0.9816256 0 -0.1908176 -0.9816345 0 -0.1907716 -0.9816254 0 -0.1908181 -0.9816345 0 -0.1907716 0 0 1 0.9816345 0 0.1907716 0 1 0 0.01870936 0.7070991 0.7068668 0.8128995 0 -0.582404 -0.9315573 0 0.3635944 0.001335382 -0.8064265 0.5913327 -0.9903981 2.33898e-7 0.138245 -0.9903962 -5.46093e-7 0.1382582 -0.9903967 0 0.1382546 0 0 -1 0 0 -1 0 0 -1 -1 0 0 -0.7512374 0 0.6600322 1 0 0 -0.9904022 0 0.1382154 0 1 0 0 1 0 0 1 0 0 1 0 0 1 0 0 1 0 0 1 0 0 -1 0 0.018772 -0.7071124 0.7068519 -0.9903979 1.03464e-6 0.1382462 -0.9903966 3.8927e-6 0.1382561 -0.9903967 0 0.1382546 -0.9903959 -2.22057e-6 0.1382603 0 -1 0 0 0.8075532 0.5897948 0 0.08823531 0.9960997 0 1 0</float_array>
          <technique_common>
            <accessor source="#_4-cab_001-mesh-normals-array" count="96" stride="3">
              <param name="X" type="float"/>
              <param name="Y" type="float"/>
              <param name="Z" type="float"/>
            </accessor>
          </technique_common>
        </source>
        <vertices id="_4-cab_001-mesh-vertices">
          <input semantic="POSITION" source="#_4-cab_001-mesh-positions"/>
        </vertices>
        <triangles material="Black_PLA-material" count="96">
          <input semantic="VERTEX" source="#_4-cab_001-mesh-vertices" offset="0"/>
          <input semantic="NORMAL" source="#_4-cab_001-mesh-normals" offset="1"/>
          <p>5 0 4 0 9 0 15 1 13 1 32 1 27 2 25 2 19 2 30 3 25 3 27 3 12 4 11 4 48 4 35 5 26 5 24 5 11 6 16 6 10 6 6 7 43 7 33 7 32 8 43 8 46 8 29 9 27 9 28 9 37 10 35 10 36 10 13 11 18 11 12 11 42 12 22 12 3 12 39 13 40 13 38 13 19 14 36 14 31 14 41 15 5 15 38 15 39 16 0 16 40 16 40 17 5 17 41 17 24 18 25 18 23 18 15 19 14 19 46 19 35 20 24 20 23 20 42 21 2 21 20 21 21 22 42 22 20 22 8 23 18 23 15 23 10 24 18 24 9 24 49 25 22 25 44 25 21 26 44 26 45 26 11 27 22 27 48 27 0 28 1 28 3 28 1 29 2 29 3 29 6 30 7 30 8 30 7 31 5 31 8 31 5 32 0 32 4 32 0 33 3 33 4 33 4 34 11 34 10 34 9 35 8 35 5 35 4 36 10 36 9 36 32 37 46 37 15 37 15 38 47 38 13 38 26 39 34 39 25 39 34 40 37 40 25 40 37 41 19 41 25 41 19 42 1 42 27 42 1 43 0 43 39 43 39 44 28 44 1 44 28 45 27 45 1 45 30 46 23 46 25 46 20 47 2 47 1 47 31 48 7 48 33 48 7 49 6 49 33 49 20 50 1 50 19 50 21 51 20 51 19 51 31 52 33 52 32 52 31 53 32 53 13 53 21 54 19 54 49 54 19 55 31 55 49 55 31 56 13 56 49 56 13 57 12 57 48 57 49 58 13 58 48 58 10 59 16 59 17 59 12 60 10 60 11 60 10 61 17 61 11 61 35 62 34 62 26 62 11 63 17 63 16 63 6 64 8 64 43 64 32 65 33 65 43 65 29 66 30 66 27 66 37 67 34 67 35 67 13 68 47 68 18 68 42 69 45 69 44 69 44 70 22 70 42 70 22 71 4 71 3 71 40 72 41 72 38 72 38 73 29 73 28 73 28 74 39 74 38 74 19 75 37 75 36 75 40 76 0 76 5 76 24 77 26 77 25 77 15 78 47 78 14 78 30 79 29 79 7 79 29 80 38 80 7 80 38 81 5 81 7 81 7 82 31 82 30 82 31 83 36 83 23 83 30 84 31 84 23 84 36 85 35 85 23 85 42 86 3 86 2 86 21 87 45 87 42 87 46 88 43 88 15 88 43 89 8 89 15 89 8 90 9 90 18 90 18 91 47 91 15 91 10 92 12 92 18 92 49 93 48 93 22 93 21 94 49 94 44 94 11 95 4 95 22 95</p>
        </triangles>
      </mesh>
    </geometry>
  </library_geometries>
  <library_visual_scenes>
    <visual_scene id="Scene" name="Scene">
      <node id="_-lower-body-Phys" name="1-lower-body-Phys" type="NODE">
        <matrix sid="transform">1 0 0 0 0 -1 1.50996e-7 0 0 -1.50996e-7 -1 0 0 0 0 1</matrix>
        <instance_geometry url="#_-lower-body-with-slip-ring_001-mesh" name="1-lower-body-Phys">
          <bind_material>
            <technique_common>
              <instance_material symbol="Black_PLA-material" target="#Black_PLA-material">
                <bind_vertex_input semantic="UVMap" input_semantic="TEXCOORD" input_set="0"/>
              </instance_material>
            </technique_common>
          </bind_material>
        </instance_geometry>
        <node id="_4-cab-Phys" name="24-cab-Phys" type="NODE">
          <matrix sid="transform">1 0 0 -24.08091 0 1 3.01992e-7 34.78803 0 -3.01992e-7 1 -34.47218 0 0 0 1</matrix>
          <instance_geometry url="#_4-cab_001-mesh" name="24-cab-Phys">
            <bind_material>
              <technique_common>
                <instance_material symbol="Black_PLA-material" target="#Black_PLA-material"/>
              </technique_common>
            </bind_material>
          </instance_geometry>
        </node>
        <node id="_7-rear-cover-Phys" name="27-rear-cover-Phys" type="NODE">
          <matrix sid="transform">1 0 0 59.41121 0 1 3.01992e-7 -1.979294 0 -3.01992e-7 1 -17.31173 0 0 0 1</matrix>
          <instance_geometry url="#_7-rear-cover_001-mesh" name="27-rear-cover-Phys">
            <bind_material>
              <technique_common>
                <instance_material symbol="White_PLA-material" target="#White_PLA-material"/>
              </technique_common>
            </bind_material>
          </instance_geometry>
        </node>
        <node id="_8-step-Phys" name="28-step-Phys" type="NODE">
          <matrix sid="transform">1 0 0 -15.86844 0 1 0 -37.91709 0 0 1 -17.62777 0 0 0 1</matrix>
          <instance_geometry url="#_8-step_001-mesh" name="28-step-Phys">
            <bind_material>
              <technique_common>
                <instance_material symbol="White_PLA-material" target="#White_PLA-material"/>
              </technique_common>
            </bind_material>
          </instance_geometry>
        </node>
        <node id="_1-guardrail-Phys" name="31-guardrail-Phys" type="NODE">
          <matrix sid="transform">1 0 0 57.70621 0 -1 -1.50996e-7 -0.5343361 0 1.50996e-7 -1 -38.12367 0 0 0 1</matrix>
          <instance_geometry url="#_1-guardrail_001-mesh" name="31-guardrail-Phys">
            <bind_material>
              <technique_common>
                <instance_material symbol="Black_PLA-material" target="#Black_PLA-material"/>
              </technique_common>
            </bind_material>
          </instance_geometry>
        </node>
        <node id="_-main-boom-holder-Phys" name="9-main-boom-holder-Phys" type="NODE">
          <matrix sid="transform">7.54979e-8 -1 0 -9.363098 -1 -7.54979e-8 -1.50996e-7 3.436441 1.50996e-7 1.13999e-14 -1 -15.78574 0 0 0 1</matrix>
          <instance_geometry url="#_-main-boom-holder_002-mesh" name="9-main-boom-holder-Phys">
            <bind_material>
              <technique_common>
                <instance_material symbol="Black_PLA-material" target="#Black_PLA-material"/>
              </technique_common>
            </bind_material>
          </instance_geometry>
        </node>
      </node>
    </visual_scene>
  </library_visual_scenes>
  <scene>
    <instance_visual_scene url="#Scene"/>
  </scene>
</COLLADA>