<?xml version="1.0" encoding="utf-8"?>
<COLLADA xmlns="http://www.collada.org/2005/11/COLLADASchema" version="1.4.1" xmlns:xsi="http://www.w3.org/2001/XMLSchema-instance">
  <asset>
    <contributor>
      <author>Blender User</author>
      <authoring_tool>Blender 4.5.4 LTS commit date:2025-10-27, commit time:12:46, hash:b3efe983cc58</authoring_tool>
    </contributor>
    <created>2025-11-10T16:03:29</created>
    <modified>2025-11-10T16:03:29</modified>
    <unit name="millimeter" meter="0.001"/>
    <up_axis>Z_UP</up_axis>
  </asset>
  <library_effects>
    <effect id="White_PLA-effect">
      <profile_COMMON>
        <technique sid="common">
          <lambert>
            <emission>
              <color sid="emission">0 0 0 1</color>
            </emission>
            <diffuse>
              <color sid="diffuse">0.8 0.8 0.8 1</color>
            </diffuse>
            <index_of_refraction>
              <float sid="ior">1.5</float>
            </index_of_refraction>
          </lambert>
        </technique>
      </profile_COMMON>
    </effect>
  </library_effects>
  <library_images/>
  <library_materials>
    <material id="White_PLA-material" name="White PLA">
      <instance_effect url="#White_PLA-effect"/>
    </material>
  </library_materials>
  <library_geometries>
    <geometry id="_8-dipper_002-mesh" name="18-dipper.002">
      <mesh>
        <source id="_8-dipper_002-mesh-positions">
          <float_array id="_8-dipper_002-mesh-positions-array" count="387">8.31173 11.40119 4.04287 8.312474 7.901163 4.042344 8.312626 7.101164 4.042223 20.03664 11.40422 0.5501096 20.03797 7.104205 0.5491619 3.017178 -7.898871 -3.19742 0.6887741 -7.899205 -4.324491 -8.285065 -7.103017 8.212056 6.820965 -7.09969 7.650731 -8.288125 7.096996 8.214192 6.817886 7.100316 7.652868 3.013775 7.979536 -3.195043 0.6853752 7.900807 -4.322115 22.08794 7.104643 0.5490108 20.04018 -7.095783 0.5476275 22.09011 -7.095343 0.5474763 23.31336 7.104155 5.65443 23.81809 7.104629 3.156377 23.31242 11.40415 5.655077 23.81717 11.40465 3.157024 8.31567 -7.098828 4.040087 23.3164 -7.095853 5.652294 -36.9995 -7.109787 12.22174 -37.25167 -7.110058 13.66877 -14.47118 -7.10522 14.01384 23.82114 -7.095368 3.154241 -77.9373 8.383913 -4.281231 -37.25459 11.386 13.67173 -79.65241 8.381772 7.497688 -9.115334 11.39868 -4.292256 -9.114563 7.8987 -4.292783 -9.111187 -7.901314 -4.29516 -9.110421 -11.40131 -4.295687 -37.25391 7.089947 13.67103 -37.00753 7.090219 12.2572 -14.47423 7.094784 14.01598 -59.17346 5.385723 10.47904 -59.17116 -5.414279 10.47741 -98.42839 -8.420491 -4.25753 -99.35793 -8.420721 -4.061081 -100.2268 -8.420964 -3.6768 -100.9975 -8.421213 -3.121324 -101.6367 -8.421457 -2.418457 -102.1169 -8.421679 -1.59872 -102.4173 -8.421878 -0.697361 -102.525 -8.42205 0.2465555 -102.4353 -8.422167 1.192289 -102.152 -8.422245 2.099174 -101.6874 -8.422268 2.927845 -101.691 8.377734 2.930372 -102.1556 8.37776 2.101701 -102.4388 8.37784 1.194816 -102.5286 8.377952 0.2490835 -102.4209 8.378125 -0.6948333 -102.1205 8.378327 -1.596192 -101.6403 8.378548 -2.415929 -101.0011 8.378792 -3.118796 -100.2304 8.379036 -3.674273 -99.36156 8.379282 -4.058554 -98.43202 8.379511 -4.255003 -101.0616 -8.422246 3.642673 -101.0652 8.377758 3.6452 -100.3015 -8.422163 4.212746 -100.3051 8.377834 4.215274 -99.4401 -8.422037 4.613379 -99.44374 8.377965 4.615906 1.059635 -11.40291 20.8482 1.059818 -7.102896 20.84336 10.78287 -11.40058 19.22877 10.78307 -7.100564 19.22393 1.05455 7.097072 20.85647 1.054729 11.39709 20.85163 22.08659 11.40464 0.5499587 10.77799 11.39943 19.2322 0.2095794 11.39943 4.115244 -3.016178 11.39897 2.584201 -3.707367 11.3989 2.010522 -4.337933 11.39887 1.370828 2.883598 11.39997 4.366451 1.985374 11.39978 4.37201 1.091057 11.39959 4.288001 -0.6502991 11.39927 3.855451 -1.479992 11.39916 3.511273 -2.271225 11.39905 3.086161 -37.25099 -11.40602 13.66811 -34.12197 -11.40668 -4.287436 8.316613 -11.39882 4.03944 22.09148 -11.39534 0.5465286 20.04154 -11.39578 0.5466793 23.82205 -11.39536 3.153594 23.31731 -11.39585 5.651647 -4.333023 -11.40114 1.367398 -3.70248 -11.4011 2.007091 -0.6453858 -11.40072 3.85202 0.214466 -11.40058 4.111814 1.095955 -11.40041 4.28457 -3.011269 -11.40104 2.580771 -2.266338 -11.40095 3.082731 -1.475086 -11.40085 3.507843 2.888504 -11.40004 4.363021 1.990276 -11.40024 4.36858 -79.64882 -8.418229 7.495161 -77.9337 -8.416091 -4.283758 -4.369518 7.89886 1.333851 2.884365 7.899961 4.365925 1.986137 7.899757 4.371484 1.091804 7.899596 4.287474 0.2103233 7.899423 4.114718 -0.6495323 7.899283 3.854924 -1.479237 7.899152 3.510747 -2.270485 7.899052 3.085634 -3.015415 7.898962 2.583675 -3.706623 7.898897 2.009995 -4.337173 7.898852 1.370302 8.315831 -7.898828 4.039967 2.887745 -7.900034 4.363548 1.989513 -7.90023 4.369107 1.095207 -7.900414 4.285097 0.213726 -7.900573 4.112341 -0.6461525 -7.900716 3.852547 -1.475849 -7.900847 3.50837 -2.267082 -7.900956 3.083257 -3.012035 -7.901037 2.581298 -3.70322 -7.901103 2.007618 -4.333786 -7.901139 1.367925 -4.366135 -7.901135 1.331474 10.77779 7.099411 19.23704 -34.12554 11.42498 -4.284 -37.00173 7.090224 12.22394</float_array>
          <technique_common>
            <accessor source="#_8-dipper_002-mesh-positions-array" count="129" stride="3">
              <param name="X" type="float"/>
              <param name="Y" type="float"/>
              <param name="Z" type="float"/>
            </accessor>
          </technique_common>
        </source>
        <source id="_8-dipper_002-mesh-normals">
          <float_array id="_8-dipper_002-mesh-normals-array" count="762">0.833149 2.62065e-4 -0.5530486 -0.4216977 -2.26843e-4 0.9067364 -0.2067741 1.02482e-4 -0.9783887 -2.24178e-4 1 1.50984e-4 0.09352546 1.70135e-4 -0.9956169 -0.001279771 1.50156e-4 -0.9999992 0.9801924 1.85872e-4 0.1980473 0.4356884 2.2811e-4 -0.9000976 -0.9545302 -2.4772e-4 0.2981139 0.4732846 2.34691e-4 -0.8809096 -0.99553 -2.25792e-4 0.09444588 0.07562851 -0.9970515 0.01298713 0.9801924 1.78872e-4 0.1980473 -0.5847024 -3.02858e-6 -0.8112479 -0.7523785 -2.62093e-4 0.6587311 -0.4044777 5.12448e-5 -0.9145479 -0.6000446 -2.49004e-4 0.7999665 -0.9486929 -1.58362e-4 -0.3161992 -0.00618869 1.49199e-4 -0.9999808 0.7121694 2.5617e-4 -0.7020077 -0.006189227 1.49049e-4 -0.9999808 -0.8628548 -1.10862e-4 -0.5054519 -0.9935649 -1.98636e-4 -0.1132648 0.6386646 2.54951e-4 -0.7694853 -0.05950617 1.37105e-4 -0.9982279 -0.7398045 -5.73446e-5 -0.6728219 0.3831623 2.22869e-4 -0.923681 0.712178 2.56995e-4 -0.7019989 0.4732826 2.35723e-4 -0.8809106 0.7479792 2.62104e-4 -0.6637222 0.7479403 2.62874e-4 -0.663766 0.1642887 0.001103162 0.9864116 0.5588085 2.43499e-4 -0.8292967 0.2892253 2.05134e-4 -0.957261 2.13794e-4 -1 -1.49693e-4 -2.155e-4 1 1.50145e-4 -2.14643e-4 1 1.49767e-4 2.21065e-4 -1 -1.50884e-4 2.15269e-4 -1 -1.47918e-4 -3.29937e-4 1.50405e-4 -1 0.1923251 1.88817e-4 -0.9813312 0.7347577 5.9654e-5 0.6783297 -7.3667e-5 2.20375e-4 -1 0.5587966 2.42892e-4 -0.8293048 0.7644535 2.64436e-4 -0.6446788 -0.8722652 -2.62531e-4 0.4890332 -0.07929831 -1.66958e-4 0.9968509 0.09352481 1.69999e-4 -0.995617 0.6386522 2.55702e-4 -0.7694956 -0.1440883 -1.79689e-4 0.9895648 -7.35515e-5 2.20375e-4 -1 0.3831606 2.22996e-4 -0.9236817 0.6840861 3.7656e-5 0.7294012 0.2892165 2.05445e-4 -0.9572637 0.8331512 3.86526e-4 -0.5530452 0.7347569 7.30403e-4 0.6783302 -0.1440888 -1.8004e-4 0.9895647 0.192326 1.88818e-4 -0.9813311 -0.2854826 1.21682e-4 -0.9583839 0.9851387 1.27931e-4 0.1717608 0.07520282 0.9970797 0.01329153 -0.001155793 0.9999454 0.01038604 1.32845e-4 -1 -2.22547e-4 -0.184212 0.001114606 0.9828858 -0.2855072 9.00669e-5 -0.9583765 -0.06809765 -0.9976086 -0.01183074 0.764454 2.65286e-4 -0.6446782 -0.06924259 0.9975508 -0.009901225 0.03713333 -1.42318e-4 0.9993103 -0.05950641 1.36846e-4 -0.998228 0.9239584 1.40532e-4 0.3824929 0.8068695 2.4298e-4 -0.5907297 -0.07995069 -1.67064e-4 0.9967988 -7.36684e-5 1.50415e-4 -1 -0.1840699 -1.8116e-4 0.9829132 0.1642892 0.001103878 0.9864116 0.8332413 3.83568e-4 -0.5529094 -0.4217096 -2.27585e-4 0.9067309 -0.2067741 1.02482e-4 -0.9783887 0.0010522 0.9999967 0.002353906 -3.22799e-4 1 1.77709e-4 -3.07165e-4 1 2.24603e-4 -2.15827e-4 1 1.50475e-4 -2.13595e-4 1 1.50081e-4 -2.21374e-4 1 1.55315e-4 -2.08409e-4 1 1.36514e-4 -2.13623e-4 1 1.50342e-4 -2.97622e-4 1 2.5014e-4 -2.15741e-4 0.9999999 1.5043e-4 -2.21436e-4 0.9999999 1.52089e-4 -2.03975e-4 1 1.5179e-4 -2.31652e-4 1 1.50227e-4 -2.18541e-4 1 1.51444e-4 -2.20138e-4 1 1.51743e-4 -2.1013e-4 1 1.50274e-4 -1.94741e-4 1 1.4803e-4 0.09352654 1.69864e-4 -0.9956168 -0.001279771 1.50154e-4 -0.9999992 0.9801906 1.80641e-4 0.198056 0.4356939 2.29114e-4 -0.9000949 -0.954512 -2.51192e-4 0.2981724 0.4732919 2.3257e-4 -0.8809056 -0.9955285 -2.24893e-4 0.09446173 0.9801918 1.77154e-4 0.1980502 -0.5847062 -2.76427e-6 -0.8112452 -0.7524025 -2.60034e-4 0.6587037 -0.4044955 5.01367e-5 -0.91454 -0.6000403 -2.48697e-4 0.7999697 -0.9486904 -1.57929e-4 -0.3162064 -0.006189227 1.49056e-4 -0.9999809 0.7121821 2.60829e-4 -0.7019947 -0.00618875 1.48919e-4 -0.9999808 -0.8628723 -1.08911e-4 -0.5054219 -0.9935539 -1.93203e-4 -0.1133599 0.6386544 2.51525e-4 -0.7694938 -0.05950641 1.37494e-4 -0.9982279 -0.7398083 -5.70292e-5 -0.6728178 0.3831636 2.22515e-4 -0.9236805 0.7121695 2.60098e-4 -0.7020075 0.4732917 2.33086e-4 -0.8809058 0.1642891 0.001104056 0.9864116 0.5587965 2.47208e-4 -0.8293048 0.2892171 2.07339e-4 -0.9572635 2.15626e-4 -1 -1.49675e-4 2.14463e-4 -1 -1.50214e-4 2.14226e-4 -1 -1.49835e-4 2.04404e-4 -1 -1.25295e-4 2.33299e-4 -1 -1.7356e-4 2.36079e-4 -1 -1.59978e-4 2.16163e-4 -1 -1.50713e-4 2.76713e-4 -1 -1.50289e-4 2.12356e-4 -1 -1.50352e-4 2.25833e-4 -1 -1.3879e-4 2.10778e-4 -1 -1.55659e-4 2.1357e-4 -1 -1.49944e-4 2.14958e-4 -1 -1.50876e-4 -2.22052e-4 1 1.48942e-4 -2.14131e-4 1 1.49846e-4 -2.14602e-4 1 1.50599e-4 -2.14397e-4 1 1.50635e-4 -2.16683e-4 1 1.50374e-4 -1.92818e-4 1 1.7199e-4 -1.83172e-4 1 1.62606e-4 -1.88927e-4 1 1.61334e-4 -1.83628e-4 1 1.36412e-4 -2.08822e-4 1 1.54057e-4 -2.21721e-4 1 1.56529e-4 -2.12182e-4 1 1.52419e-4 -2.13204e-4 1 1.50407e-4 -2.1366e-4 1 1.50767e-4 -2.14689e-4 1 1.5226e-4 -2.14625e-4 1 1.51386e-4 -2.1466e-4 1 1.49221e-4 -2.1555e-4 1 1.4988e-4 -2.14474e-4 1 1.49986e-4 -2.146e-4 1 1.4895e-4 -2.14612e-4 1 1.47747e-4 -2.1498e-4 1 1.49081e-4 1.04161e-4 -1 -1.22904e-4 2.14616e-4 -1 7.37294e-5 1.27925e-4 -1 -5.45354e-5 1.21131e-4 -1 -7.27164e-5 2.14818e-4 -1 -1.50645e-4 2.13703e-4 -1 -1.51141e-4 2.1413e-4 -1 -1.50922e-4 2.12129e-4 -1 -1.48859e-4 2.14187e-4 -1 -1.51452e-4 2.06191e-4 -0.9999999 -1.48692e-4 2.21562e-4 -1 -1.52117e-4 2.15872e-4 -1 -1.51204e-4 2.08136e-4 -1 -1.49603e-4 2.16594e-4 -1 -1.5084e-4 2.18848e-4 -1 -1.50198e-4 2.06123e-4 -1 -1.50916e-4 2.1294e-4 -1 -1.50473e-4 2.13755e-4 -1 -1.47327e-4 2.13284e-4 -1 -1.46644e-4 2.1436e-4 -1 -1.51403e-4 2.15324e-4 -1 -1.51733e-4 2.14655e-4 -1 -1.52905e-4 2.1469e-4 -1 -1.55167e-4 2.109e-4 -1 -1.06611e-4 2.14478e-4 -1 -1.52503e-4 2.14137e-4 -1 -1.52251e-4 2.1504e-4 -1 -1.45788e-4 -3.29927e-4 1.50336e-4 -1 -3.29936e-4 1.50403e-4 -0.9999999 -3.29945e-4 1.50336e-4 -1 -0.002993106 1.4977e-4 -0.9999955 -0.002992987 1.49835e-4 -0.9999956 0.192323 1.88265e-4 -0.9813317 0.7348631 7.29265e-4 0.6782151 -7.37835e-5 2.20431e-4 -0.9999999 0.5588084 2.46543e-4 -0.8292968 0.7643467 6.127e-4 -0.6448054 -0.8722686 -2.62127e-4 0.489027 -0.07929831 -1.66997e-4 0.9968509 0.09352535 1.69864e-4 -0.9956169 0.638667 2.50779e-4 -0.7694832 -0.1440891 -1.83922e-4 0.9895647 -0.1440889 -1.75306e-4 0.9895648 -0.1440891 -1.75889e-4 0.9895647 -0.1440889 -1.84271e-4 0.9895647 -0.1440882 -1.79607e-4 0.9895648 -7.37853e-5 2.20487e-4 -0.9999999 0.3831654 2.21679e-4 -0.9236798 0.6840856 3.71964e-5 0.7294017 0.2892241 2.07472e-4 -0.9572614 0.8330544 2.59135e-4 -0.553191 0.7346504 5.42485e-5 0.6784458 -0.1440891 -1.79616e-4 0.9895647 0.1923246 1.88475e-4 -0.9813314 -0.2854939 8.03598e-5 -0.9583805 -0.2854804 8.73506e-5 -0.9583846 -1.61548e-4 0.9999447 0.01052105 4.06317e-4 0.9999445 0.01053076 -0.029899 0.9995205 -0.008051395 -0.002180278 0.9999464 0.01012289 -2.1456e-4 1 1.52467e-4 -7.57511e-5 1 2.76524e-4 -2.21319e-4 1 1.48087e-4 -2.18405e-4 1 1.50107e-4 -2.2067e-4 1 1.48894e-4 -2.09539e-4 1 1.53335e-4 -0.004014015 0.9999487 0.009297072 -0.003113389 0.9999474 0.009765028 2.14714e-4 -1 -1.49378e-4 2.15952e-4 -0.9999999 -1.4998e-4 2.13303e-4 -0.9999999 -1.50103e-4 2.17787e-4 -1 -1.50026e-4 2.19879e-4 -1 -1.49742e-4 2.09467e-4 -1 -1.52416e-4 2.12106e-4 -1 -1.51404e-4 2.19774e-4 -1 -1.4742e-4 2.17723e-4 -1 -1.49491e-4 2.11277e-4 -1 -1.52063e-4 2.18294e-4 -1 -1.48302e-4 2.12205e-4 -1 -1.52526e-4 -0.1843531 -1.8923e-4 0.98286 -0.2854941 8.34706e-5 -0.9583805 -0.2855051 1.23336e-4 -0.9583772 -0.06881451 -0.9975773 -0.01020097 0.7643465 -8.54543e-5 -0.6448058 -0.06924277 0.9975507 -0.009900867 0.03713333 -1.42335e-4 0.9993103 -0.05950677 1.37371e-4 -0.9982278 0.9239553 1.42751e-4 0.3825004 0.8068701 2.61842e-4 -0.5907289 0.8068706 2.50675e-4 -0.5907281 0.8068706 2.61344e-4 -0.5907282 -0.07862365 -0.002533674 0.9969011 -7.36555e-5 1.50443e-4 -1 -0.1842104 0.001114785 0.9828863 0.1642888 0.001103043 0.9864116</float_array>
          <technique_common>
            <accessor source="#_8-dipper_002-mesh-normals-array" count="254" stride="3">
              <param name="X" type="float"/>
              <param name="Y" type="float"/>
              <param name="Z" type="float"/>
            </accessor>
          </technique_common>
        </source>
        <source id="_8-dipper_002-mesh-map-0">
          <float_array id="_8-dipper_002-mesh-map-0-array" count="1524">0 0 0 0 0 0 0 0 0 0 0 0 0 0 0 0 0 0 0 0 0 0 0 0 0 0 0 0 0 0 0 0 0 0 0 0 0 0 0 0 0 0 0 0 0 0 0 0 0 0 0 0 0 0 0 0 0 0 0 0 0 0 0 0 0 0 0 0 0 0 0 0 0 0 0 0 0 0 0 0 0 0 0 0 0 0 0 0 0 0 0 0 0 0 0 0 0 0 0 0 0 0 0 0 0 0 0 0 0 0 0 0 0 0 0 0 0 0 0 0 0 0 0 0 0 0 0 0 0 0 0 0 0 0 0 0 0 0 0 0 0 0 0 0 0 0 0 0 0 0 0 0 0 0 0 0 0 0 0 0 0 0 0 0 0 0 0 0 0 0 0 0 0 0 0 0 0 0 0 0 0 0 0 0 0 0 0 0 0 0 0 0 0 0 0 0 0 0 0 0 0 0 0 0 0 0 0 0 0 0 0 0 0 0 0 0 0 0 0 0 0 0 0 0 0 0 0 0 0 0 0 0 0 0 0 0 0 0 0 0 0 0 0 0 0 0 0 0 0 0 0 0 0 0 0 0 0 0 0 0 0 0 0 0 0 0 0 0 0 0 0 0 0 0 0 0 0 0 0 0 0 0 0 0 0 0 0 0 0 0 0 0 0 0 0 0 0 0 0 0 0 0 0 0 0 0 0 0 0 0 0 0 0 0 0 0 0 0 0 0 0 0 0 0 0 0 0 0 0 0 0 0 0 0 0 0 0 0 0 0 0 0 0 0 0 0 0 0 0 0 0 0 0 0 0 0 0 0 0 0 0 0 0 0 0 0 0 0 0 0 0 0 0 0 0 0 0 0 0 0 0 0 0 0 0 0 0 0 0 0 0 0 0 0 0 0 0 0 0 0 0 0 0 0 0 0 0 0 0 0 0 0 0 0 0 0 0 0 0 0 0 0 0 0 0 0 0 0 0 0 0 0 0 0 0 0 0 0 0 0 0 0 0 0 0 0 0 0 0 0 0 0 0 0 0 0 0 0 0 0 0 0 0 0 0 0 0 0 0 0 0 0 0 0 0 0 0 0 0 0 0 0 0 0 0 0 0 0 0 0 0 0 0 0 0 0 0 0 0 0 0 0 0 0 0 0 0 0 0 0 0 0 0 0 0 0 0 0 0 0 0 0 0 0 0 0 0 0 0 0 0 0 0 0 0 0 0 0 0 0 0 0 0 0 0 0 0 0 0 0 0 0 0 0 0 0 0 0 0 0 0 0 0 0 0 0 0 0 0 0 0 0 0 0 0 0 0 0 0 0 0 0 0 0 0 0 0 0 0 0 0 0 0 0 0 0 0 0 0 0 0 0 0 0 0 0 0 0 0 0 0 0 0 0 0 0 0 0 0 0 0 0 0 0 0 0 0 0 0 0 0 0 0 0 0 0 0 0 0 0 0 0 0 0 0 0 0 0 0 0 0 0 0 0 0 0 0 0 0 0 0 0 0 0 0 0 0 0 0 0 0 0 0 0 0 0 0 0 0 0 0 0 0 0 0 0 0 0 0 0 0 0 0 0 0 0 0 0 0 0 0 0 0 0 0 0 0 0 0 0 0 0 0 0 0 0 0 0 0 0 0 0 0 0 0 0 0 0 0 0 0 0 0 0 0 0 0 0 0 0 0 0 0 0 0 0 0 0 0 0 0 0 0 0 0 0 0 0 0 0 0 0 0 0 0 0 0 0 0 0 0 0 0 0 0 0 0 0 0 0 0 0 0 0 0 0 0 0 0 0 0 0 0 0 0 0 0 0 0 0 0 0 0 0 0 0 0 0 0 0 0 0 0 0 0 0 0 0 0 0 0 0 0 0 0 0 0 0 0 0 0 0 0 0 0 0 0 0 0 0 0 0 0 0 0 0 0 0 0 0 0 0 0 0 0 0 0 0 0 0 0 0 0 0 0 0 0 0 0 0 0 0 0 0 0 0 0 0 0 0 0 0 0 0 0 0 0 0 0 0 0 0 0 0 0 0 0 0 0 0 0 0 0 0 0 0 0 0 0 0 0 0 0 0 0 0 0 0 0 0 0 0 0 0 0 0 0 0 0 0 0 0 0 0 0 0 0 0 0 0 0 0 0 0 0 0 0 0 0 0 0 0 0 0 0 0 0 0 0 0 0 0 0 0 0 0 0 0 0 0 0 0 0 0 0 0 0 0 0 0 0 0 0 0 0 0 0 0 0 0 0 0 0 0 0 0 0 0 0 0 0 0 0 0 0 0 0 0 0 0 0 0 0 0 0 0 0 0 0 0 0 0 0 0 0 0 0 0 0 0 0 0 0 0 0 0 0 0 0 0 0 0 0 0 0 0 0 0 0 0 0 0 0 0 0 0 0 0 0 0 0 0 0 0 0 0 0 0 0 0 0 0 0 0 0 0 0 0 0 0 0 0 0 0 0 0 0 0 0 0 0 0 0 0 0 0 0 0 0 0 0 0 0 0 0 0 0 0 0 0 0 0 0 0 0 0 0 0 0 0 0 0 0 0 0 0 0 0 0 0 0 0 0 0 0 0 0 0 0 0 0 0 0 0 0 0 0 0 0 0 0 0 0 0 0 0 0 0 0 0 0 0 0 0 0 0 0 0 0 0 0 0 0 0 0 0 0 0 0 0 0 0 0 0 0 0 0 0 0 0 0 0 0 0 0 0 0 0 0 0 0 0 0 0 0 0 0 0 0 0 0 0 0 0 0 0 0 0 0 0 0 0 0 0 0 0 0 0 0 0 0 0 0 0 0 0 0 0 0 0 0 0 0 0 0 0 0 0 0 0 0 0 0 0 0 0 0 0 0 0 0 0 0 0 0 0 0 0 0 0 0 0 0 0 0 0 0 0 0 0 0 0 0 0 0 0 0 0 0 0 0 0 0 0 0 0 0 0 0 0 0 0 0 0 0 0 0 0 0 0 0 0 0 0 0 0 0 0 0 0 0 0 0 0 0 0 0 0 0 0 0 0 0 0 0 0 0 0 0 0 0 0 0 0 0 0 0 0 0 0 0 0 0 0 0 0 0 0 0 0 0 0 0 0 0 0 0 0 0 0 0 0 0 0 0 0 0 0 0 0 0 0 0 0 0 0 0 0 0 0 0 0 0 0 0 0 0 0 0 0 0 0 0 0 0 0 0 0 0 0 0 0 0 0 0 0 0 0 0 0 0 0 0 0 0 0 0 0 0 0 0 0 0 0 0 0 0 0 0 0 0 0 0 0 0 0 0 0 0 0 0 0 0 0 0 0 0 0 0 0 0 0 0 0 0 0 0 0 0 0 0 0 0 0 0 0 0 0 0 0 0 0 0 0 0 0 0 0 0 0 0 0 0 0 0 0 0 0 0 0 0 0 0 0 0 0 0 0 0 0 0 0 0 0 0 0 0 0 0 0 0 0 0 0</float_array>
          <technique_common>
            <accessor source="#_8-dipper_002-mesh-map-0-array" count="762" stride="2">
              <param name="S" type="float"/>
              <param name="T" type="float"/>
            </accessor>
          </technique_common>
        </source>
        <vertices id="_8-dipper_002-mesh-vertices">
          <input semantic="POSITION" source="#_8-dipper_002-mesh-positions"/>
        </vertices>
        <triangles material="White_PLA-material" count="254">
          <input semantic="VERTEX" source="#_8-dipper_002-mesh-vertices" offset="0"/>
          <input semantic="NORMAL" source="#_8-dipper_002-mesh-normals" offset="1"/>
          <input semantic="TEXCOORD" source="#_8-dipper_002-mesh-map-0" offset="2" set="0"/>
          <p>17 0 0 72 0 1 19 0 2 64 1 3 63 1 4 62 1 5 59 2 6 39 2 7 58 2 8 71 3 9 74 3 10 81 3 11 95 4 12 116 4 13 100 4 14 26 5 15 102 5 16 38 5 17 17 6 18 18 6 19 16 6 20 5 7 21 12 7 22 11 7 23 46 8 24 50 8 25 51 8 26 110 9 27 82 9 28 109 9 29 52 10 30 46 10 31 51 10 32 33 11 33 36 11 34 34 11 35 89 12 36 21 12 37 90 12 38 57 13 39 41 13 40 56 13 41 48 14 42 61 14 43 49 14 44 57 15 45 39 15 46 40 15 47 61 16 48 62 16 49 63 16 50 53 17 51 43 17 52 44 17 53 99 18 54 116 18 55 115 18 56 92 19 57 124 19 58 123 19 59 105 20 60 78 20 61 104 20 62 55 21 63 43 21 64 54 21 65 44 22 66 52 22 67 53 22 68 111 23 69 76 23 70 75 23 71 0 24 72 104 24 73 78 24 74 56 25 75 42 25 76 55 25 77 98 26 78 119 26 79 93 26 80 113 27 81 76 27 82 112 27 83 97 28 84 120 28 85 98 28 86 77 29 87 113 29 88 103 29 89 124 30 90 91 30 91 125 30 92 71 31 93 126 31 94 73 31 95 96 32 96 121 32 97 97 32 98 93 33 99 118 33 100 94 33 101 39 34 102 64 34 103 43 34 104 61 35 105 57 35 106 52 35 107 24 36 108 22 36 109 23 36 110 94 37 111 95 37 112 66 37 113 2 38 114 4 38 115 16 38 116 31 39 117 85 39 118 30 39 119 95 40 120 118 40 121 117 40 122 73 41 123 16 41 124 18 41 125 72 42 126 4 42 127 3 42 128 110 43 129 75 43 130 83 43 131 125 44 132 32 44 133 31 44 134 49 45 135 47 45 136 48 45 137 24 46 138 128 46 139 22 46 140 106 47 141 79 47 142 105 47 143 92 48 144 122 48 145 96 48 146 37 49 147 36 49 148 28 49 149 88 50 150 15 50 151 87 50 152 109 51 153 81 51 154 108 51 155 35 52 156 7 52 157 9 52 158 107 53 159 81 53 160 74 53 161 15 54 162 89 54 163 87 54 164 90 55 165 69 55 166 68 55 167 64 56 168 28 56 169 65 56 170 106 57 171 74 57 172 80 57 173 88 58 174 114 58 175 14 58 176 22 59 177 128 59 178 34 59 179 23 60 180 22 60 181 37 60 182 106 61 183 105 61 184 11 61 185 124 62 186 125 62 187 6 62 188 27 63 189 70 63 190 71 63 191 4 64 192 2 64 193 1 64 194 84 65 195 102 65 196 85 65 197 29 66 198 103 66 199 30 66 200 26 67 201 27 67 202 127 67 203 10 68 204 7 68 205 8 68 206 99 69 207 114 69 208 86 69 209 2 70 210 8 70 211 20 70 212 11 71 213 1 71 214 2 71 215 37 72 216 34 72 217 36 72 218 26 73 219 85 73 220 102 73 221 84 74 222 67 74 223 23 74 224 68 75 225 67 75 226 66 75 227 17 76 228 13 76 229 72 76 230 64 77 231 65 77 232 63 77 233 59 78 234 38 78 235 39 78 236 127 79 237 27 79 238 29 79 239 27 80 240 71 80 241 76 80 242 29 81 243 27 81 244 77 81 245 71 82 246 73 82 247 78 82 248 73 83 249 18 83 250 0 83 251 18 84 252 19 84 253 3 84 254 19 85 255 72 85 256 3 85 257 3 86 258 0 86 259 18 86 260 77 87 261 27 87 262 76 87 263 73 88 264 0 88 265 78 88 266 75 89 267 76 89 268 71 89 269 71 90 270 78 90 271 79 90 272 71 91 273 79 91 274 80 91 275 83 92 276 75 92 277 71 92 278 82 93 279 83 93 280 71 93 281 71 94 282 80 94 283 74 94 284 81 95 285 82 95 286 71 95 287 95 96 288 117 96 289 116 96 290 59 97 291 26 97 292 38 97 293 17 98 294 19 98 295 18 98 296 5 99 297 6 99 298 12 99 299 46 100 300 47 100 301 50 100 302 110 101 303 83 101 304 82 101 305 52 102 306 45 102 307 46 102 308 89 103 309 25 103 310 21 103 311 57 104 312 40 104 313 41 104 314 48 105 315 60 105 316 61 105 317 57 106 318 58 106 319 39 106 320 61 107 321 60 107 322 62 107 323 53 108 324 54 108 325 43 108 326 99 109 327 100 109 328 116 109 329 92 110 330 91 110 331 124 110 332 105 111 333 79 111 334 78 111 335 55 112 336 42 112 337 43 112 338 44 113 339 45 113 340 52 113 341 111 114 342 112 114 343 76 114 344 0 115 345 1 115 346 104 115 347 56 116 348 41 116 349 42 116 350 98 117 351 120 117 352 119 117 353 113 118 354 77 118 355 76 118 356 97 119 357 121 119 358 120 119 359 71 120 360 70 120 361 126 120 362 96 121 363 122 121 364 121 121 365 93 122 366 119 122 367 118 122 368 39 123 369 38 123 370 64 123 371 38 124 372 102 124 373 101 124 374 64 125 375 38 125 376 101 125 377 64 126 378 62 126 379 60 126 380 60 127 381 48 127 382 64 127 383 48 128 384 47 128 385 46 128 386 64 129 387 48 129 388 43 129 389 46 130 390 45 130 391 44 130 392 44 131 393 43 131 394 48 131 395 43 132 396 42 132 397 40 132 398 42 133 399 41 133 400 40 133 401 40 134 402 39 134 403 43 134 404 46 135 405 44 135 406 48 135 407 63 136 408 65 136 409 59 136 410 65 137 411 28 137 412 59 137 413 28 138 414 26 138 415 59 138 416 59 139 417 58 139 418 63 139 419 58 140 420 57 140 421 63 140 422 57 141 423 56 141 424 55 141 425 55 142 426 54 142 427 52 142 428 54 143 429 53 143 430 52 143 431 52 144 432 51 144 433 61 144 434 55 145 435 52 145 436 57 145 437 51 146 438 50 146 439 49 146 440 49 147 441 61 147 442 51 147 443 61 148 444 63 148 445 57 148 446 21 149 447 25 149 448 14 149 449 25 150 450 15 150 451 14 150 452 14 151 453 20 151 454 21 151 455 8 152 456 7 152 457 67 152 458 7 153 459 24 153 460 67 153 461 20 154 462 8 154 463 21 154 464 69 155 465 21 155 466 8 155 467 23 156 468 67 156 469 24 156 470 67 157 471 69 157 472 8 157 473 66 158 474 84 158 475 92 158 476 84 159 477 85 159 478 32 159 479 92 160 480 84 160 481 91 160 482 32 161 483 91 161 484 84 161 485 68 162 486 66 162 487 99 162 488 89 163 489 90 163 490 88 163 491 90 164 492 68 164 493 86 164 494 88 165 495 87 165 496 89 165 497 86 166 498 88 166 499 90 166 500 66 167 501 92 167 502 96 167 503 66 168 504 96 168 505 97 168 506 99 169 507 86 169 508 68 169 509 66 170 510 97 170 511 98 170 512 66 171 513 98 171 514 93 171 515 100 172 516 99 172 517 66 172 518 95 173 519 100 173 520 66 173 521 66 174 522 93 174 523 94 174 524 13 175 525 17 175 526 4 175 527 17 176 528 16 176 529 4 176 530 16 177 531 126 177 532 10 177 533 126 178 534 70 178 535 10 178 536 70 179 537 33 179 538 35 179 539 33 180 540 34 180 541 35 180 542 34 181 543 128 181 544 35 181 545 35 182 546 9 182 547 70 182 548 9 183 549 10 183 550 70 183 551 10 184 552 2 184 553 16 184 554 31 185 555 32 185 556 85 185 557 85 186 558 127 186 559 30 186 560 127 187 561 29 187 562 30 187 563 30 188 564 12 188 565 6 188 566 30 189 567 6 189 568 31 189 569 95 190 570 94 190 571 118 190 572 73 191 573 126 191 574 16 191 575 72 192 576 13 192 577 4 192 578 110 193 579 111 193 580 75 193 581 125 194 582 91 194 583 32 194 584 49 195 585 50 195 586 47 195 587 24 196 588 35 196 589 128 196 590 106 197 591 80 197 592 79 197 593 92 198 594 123 198 595 122 198 596 36 199 597 33 199 598 27 199 599 101 200 600 84 200 601 37 200 602 84 201 603 23 201 604 37 201 605 36 202 606 27 202 607 28 202 608 101 203 609 37 203 610 28 203 611 88 204 612 14 204 613 15 204 614 109 205 615 82 205 616 81 205 617 35 206 618 24 206 619 7 206 620 107 207 621 108 207 622 81 207 623 15 208 624 25 208 625 89 208 626 90 209 627 21 209 628 69 209 629 64 210 630 101 210 631 28 210 632 106 211 633 107 211 634 74 211 635 86 212 636 114 212 637 88 212 638 114 213 639 20 213 640 14 213 641 105 214 642 104 214 643 11 214 644 104 215 645 1 215 646 11 215 647 11 216 648 12 216 649 109 216 650 106 217 651 11 217 652 107 217 653 12 218 654 30 218 655 103 218 656 103 219 657 113 219 658 12 219 659 113 220 660 112 220 661 12 220 662 112 221 663 111 221 664 12 221 665 111 222 666 110 222 667 12 222 668 110 223 669 109 223 670 12 223 671 109 224 672 108 224 673 11 224 674 108 225 675 107 225 676 11 225 677 125 226 678 31 226 679 6 226 680 6 227 681 5 227 682 120 227 683 5 228 684 114 228 685 115 228 686 116 229 687 5 229 688 115 229 689 116 230 690 117 230 691 5 230 692 117 231 693 118 231 694 5 231 695 118 232 696 119 232 697 5 232 698 119 233 699 120 233 700 5 233 701 120 234 702 121 234 703 6 234 704 121 235 705 122 235 706 6 235 707 122 236 708 123 236 709 6 236 710 123 237 711 124 237 712 6 237 713 27 238 714 33 238 715 70 238 716 1 239 717 0 239 718 3 239 719 3 240 720 4 240 721 1 240 722 84 241 723 101 241 724 102 241 725 29 242 726 77 242 727 103 242 728 26 243 729 28 243 730 27 243 731 10 244 732 9 244 733 7 244 734 99 245 735 115 245 736 114 245 737 2 246 738 10 246 739 8 246 740 2 247 741 20 247 742 5 247 743 20 248 744 114 248 745 5 248 746 2 249 747 5 249 748 11 249 749 37 250 750 22 250 751 34 250 752 26 251 753 127 251 754 85 251 755 84 252 756 66 252 757 67 252 758 68 253 759 69 253 760 67 253 761</p>
        </triangles>
      </mesh>
    </geometry>
  </library_geometries>
  <library_visual_scenes>
    <visual_scene id="Scene" name="Scene">
      <node id="_8-dipper-Phys" name="18-dipper-Phys" type="NODE">
        <matrix sid="transform">0.7334712 0 -0.6797205 0 0 1 0 0 0.6797205 0 0.7334712 0 0 0 0 1</matrix>
        <instance_geometry url="#_8-dipper_002-mesh" name="18-dipper-Phys">
          <bind_material>
            <technique_common>
              <instance_material symbol="White_PLA-material" target="#White_PLA-material">
                <bind_vertex_input semantic="UVMap" input_semantic="TEXCOORD" input_set="0"/>
              </instance_material>
            </technique_common>
          </bind_material>
        </instance_geometry>
      </node>
    </visual_scene>
  </library_visual_scenes>
  <scene>
    <instance_visual_scene url="#Scene"/>
  </scene>
</COLLADA>