<?xml version="1.0" encoding="utf-8"?>
<COLLADA xmlns="http://www.collada.org/2005/11/COLLADASchema" version="1.4.1" xmlns:xsi="http://www.w3.org/2001/XMLSchema-instance">
  <asset>
    <contributor>
      <author>Blender User</author>
      <authoring_tool>Blender 4.5.4 LTS commit date:2025-10-27, commit time:12:46, hash:b3efe983cc58</authoring_tool>
    </contributor>
    <created>2025-11-10T16:01:11</created>
    <modified>2025-11-10T16:01:11</modified>
    <unit name="millimeter" meter="0.001"/>
    <up_axis>Z_UP</up_axis>
  </asset>
  <library_effects/>
  <library_images/>
  <library_geometries>
    <geometry id="Cylinder_017-mesh" name="Cylinder.017">
      <mesh>
        <source id="Cylinder_017-mesh-positions">
          <float_array id="Cylinder_017-mesh-positions-array" count="252">1.43051e-7 21 -16.6425 1.43051e-7 21 16.6425 3.129888 20.76545 -16.6425 3.129888 20.76545 16.6425 6.189859 20.06703 -16.6425 6.189859 20.06703 16.6425 9.111559 18.92035 -16.6425 9.111559 18.92035 16.6425 11.82972 17.35101 -16.6425 11.82972 17.35101 16.6425 14.28363 15.39409 -16.6425 14.28363 15.39409 16.6425 16.41846 13.09329 -16.6425 16.41846 13.09329 16.6425 18.18653 10.5 -16.6425 18.18653 10.5 16.6425 19.54835 7.672161 -16.6425 19.54835 7.672162 16.6425 20.47349 4.672939 -16.6425 20.47349 4.67294 16.6425 20.94128 1.569332 -16.6425 20.94128 1.569333 16.6425 20.94128 -1.569332 -16.6425 20.94128 -1.569331 16.6425 20.47349 -4.67294 -16.6425 20.47349 -4.672939 16.6425 19.54835 -7.672162 -16.6425 19.54835 -7.672161 16.6425 18.18653 -10.5 -16.6425 18.18653 -10.5 16.6425 16.41846 -13.09329 -16.6425 16.41846 -13.09329 16.6425 14.28363 -15.39409 -16.6425 14.28363 -15.39409 16.6425 11.82972 -17.35101 -16.6425 11.82972 -17.35101 16.6425 9.111559 -18.92035 -16.6425 9.111559 -18.92035 16.6425 6.189859 -20.06703 -16.6425 6.189859 -20.06703 16.6425 3.129888 -20.76545 -16.6425 3.129888 -20.76545 16.6425 1.43051e-7 -21 -16.6425 1.43051e-7 -21 16.6425 -3.129887 -20.76545 -16.6425 -3.129887 -20.76545 16.6425 -6.189859 -20.06703 -16.6425 -6.189859 -20.06703 16.6425 -9.111559 -18.92035 -16.6425 -9.111559 -18.92035 16.6425 -11.82972 -17.35101 -16.6425 -11.82972 -17.35101 16.6425 -14.28363 -15.39409 -16.6425 -14.28363 -15.39409 16.6425 -16.41846 -13.09329 -16.6425 -16.41846 -13.09329 16.6425 -18.18653 -10.5 -16.6425 -18.18653 -10.5 16.6425 -19.54835 -7.672162 -16.6425 -19.54835 -7.672161 16.6425 -20.47348 -4.67294 -16.6425 -20.47348 -4.672939 16.6425 -20.94128 -1.569332 -16.6425 -20.94128 -1.569331 16.6425 -20.94128 1.569332 -16.6425 -20.94128 1.569333 16.6425 -20.47348 4.672939 -16.6425 -20.47348 4.67294 16.6425 -19.54835 7.672161 -16.6425 -19.54835 7.672162 16.6425 -18.18653 10.5 -16.6425 -18.18653 10.5 16.6425 -16.41846 13.09329 -16.6425 -16.41846 13.09329 16.6425 -14.28363 15.39409 -16.6425 -14.28363 15.39409 16.6425 -11.82972 17.35101 -16.6425 -11.82972 17.35101 16.6425 -9.111559 18.92035 -16.6425 -9.111559 18.92035 16.6425 -6.189859 20.06703 -16.6425 -6.189859 20.06703 16.6425 -3.129887 20.76545 -16.6425 -3.129887 20.76545 16.6425</float_array>
          <technique_common>
            <accessor source="#Cylinder_017-mesh-positions-array" count="84" stride="3">
              <param name="X" type="float"/>
              <param name="Y" type="float"/>
              <param name="Z" type="float"/>
            </accessor>
          </technique_common>
        </source>
        <source id="Cylinder_017-mesh-normals">
          <float_array id="Cylinder_017-mesh-normals-array" count="492">0.07473057 0.9972038 0 0.2225207 0.974928 0 0.365341 0.9308738 0 0.5 0.8660255 0 0.6234899 0.7818314 0 0.7330517 0.6801729 0 0.8262392 0.5633195 0 0.9009687 0.433884 0 0.9555726 0.2947561 0 0.9888311 0.1490407 0 1 0 0 0.9888311 -0.1490407 0 0.9555726 -0.2947559 0 0.9009686 -0.4338842 0 0.8262392 -0.5633193 0 0.7330517 -0.6801729 0 0.6234899 -0.7818314 0 0.5 -0.8660255 0 0.365341 -0.9308738 0 0.2225207 -0.974928 0 0.07472997 -0.9972039 0 -0.07472997 -0.9972039 0 -0.2225207 -0.974928 0 -0.365341 -0.9308738 0 -0.5000001 -0.8660254 0 -0.6234897 -0.7818315 0 -0.7330517 -0.6801729 0 -0.8262392 -0.5633193 0 -0.9009686 -0.4338842 0 -0.9555729 -0.2947549 0 -0.9888309 -0.1490419 0 -1 0 0 -0.9888309 0.1490419 0 -0.9555729 0.2947549 0 -0.9009687 0.433884 0 -0.8262392 0.5633195 0 -0.7330517 0.6801729 0 -0.6234897 0.7818315 0 -0.5000001 0.8660254 0 -0.365341 0.9308738 0 0 0 1 -0.2225207 0.974928 0 -0.07473057 0.9972038 0 0 0 -1 0.07473057 0.9972038 0 0.2225207 0.974928 0 0.365341 0.9308738 0 0.5 0.8660255 0 0.6234899 0.7818314 0 0.7330517 0.6801729 0 0.8262392 0.5633195 0 0.9009687 0.4338841 0 0.9555726 0.2947561 0 0.9888311 0.1490407 0 1 0 0 0.9888311 -0.1490407 0 0.9555726 -0.2947559 0 0.9009687 -0.4338841 0 0.8262392 -0.5633193 0 0.7330517 -0.6801729 0 0.6234899 -0.7818314 0 0.5 -0.8660255 0 0.365341 -0.9308738 0 0.2225207 -0.974928 0 0.07472997 -0.9972039 0 -0.07472997 -0.9972039 0 -0.2225207 -0.974928 0 -0.365341 -0.9308738 0 -0.5000001 -0.8660254 0 -0.6234897 -0.7818315 0 -0.7330517 -0.6801729 0 -0.8262392 -0.5633193 0 -0.9009687 -0.4338841 0 -0.9555729 -0.2947549 0 -0.9888309 -0.1490419 0 -1 0 0 -0.9888309 0.1490419 0 -0.9555729 0.2947549 0 -0.9009687 0.4338841 0 -0.8262392 0.5633195 0 -0.7330517 0.6801729 0 -0.6234897 0.7818315 0 -0.5000001 0.8660254 0 -0.365341 0.9308738 0 0 0 1 0 0 1 0 0 1 0 0 1 0 0 1 0 0 1 0 0 1 0 0 1 0 0 1 0 0 1 0 0 1 0 0 1 0 0 1 0 0 1 0 0 1 0 0 1 0 0 1 0 0 1 0 0 1 0 0 1 0 0 1 0 0 1 0 0 1 0 0 1 0 0 1 0 0 1 0 0 1 0 0 1 0 0 1 0 0 1 0 0 1 0 0 1 0 0 1 0 0 1 0 0 1 0 0 1 0 0 1 0 0 1 0 0 1 -0.2225207 0.974928 0 -0.07473057 0.9972038 0 0 0 -1 0 0 -1 0 0 -1 0 0 -1 0 0 -1 0 0 -1 0 0 -1 0 0 -1 0 0 -1 0 0 -1 0 0 -1 0 0 -1 0 0 -1 0 0 -1 0 0 -1 0 0 -1 0 0 -1 0 0 -1 0 0 -1 0 0 -1 0 0 -1 0 0 -1 0 0 -1 0 0 -1 0 0 -1 0 0 -1 0 0 -1 0 0 -1 0 0 -1 0 0 -1 0 0 -1 0 0 -1 0 0 -1 0 0 -1 0 0 -1 0 0 -1 0 0 -1 0 0 -1 0 0 -1</float_array>
          <technique_common>
            <accessor source="#Cylinder_017-mesh-normals-array" count="164" stride="3">
              <param name="X" type="float"/>
              <param name="Y" type="float"/>
              <param name="Z" type="float"/>
            </accessor>
          </technique_common>
        </source>
        <source id="Cylinder_017-mesh-map-0">
          <float_array id="Cylinder_017-mesh-map-0-array" count="984">1 1 0.9761905 0.5 1 0.5 0.9761905 1 0.9523809 0.5 0.9761905 0.5 0.9523809 1 0.9285714 0.5 0.9523809 0.5 0.9285714 1 0.9047618 0.5 0.9285714 0.5 0.9047618 1 0.8809522 0.5 0.9047618 0.5 0.8809522 1 0.8571427 0.5 0.8809522 0.5 0.8571427 1 0.8333331 0.5 0.8571427 0.5 0.8333331 1 0.8095236 0.5 0.8333331 0.5 0.8095236 1 0.785714 0.5 0.8095236 0.5 0.785714 1 0.7619045 0.5 0.785714 0.5 0.7619045 1 0.7380949 0.5 0.7619045 0.5 0.7380949 1 0.7142854 0.5 0.7380949 0.5 0.7142854 1 0.6904758 0.5 0.7142854 0.5 0.6904758 1 0.6666663 0.5 0.6904758 0.5 0.6666663 1 0.6428567 0.5 0.6666663 0.5 0.6428567 1 0.6190472 0.5 0.6428567 0.5 0.6190472 1 0.5952376 0.5 0.6190472 0.5 0.5952376 1 0.5714281 0.5 0.5952376 0.5 0.5714281 1 0.5476185 0.5 0.5714281 0.5 0.5476185 1 0.523809 0.5 0.5476185 0.5 0.523809 1 0.4999994 0.5 0.523809 0.5 0.4999994 1 0.4761899 0.5 0.4999994 0.5 0.4761899 1 0.4523804 0.5 0.4761899 0.5 0.4523804 1 0.4285709 0.5 0.4523804 0.5 0.4285709 1 0.4047613 0.5 0.4285709 0.5 0.4047613 1 0.3809518 0.5 0.4047613 0.5 0.3809518 1 0.3571423 0.5 0.3809518 0.5 0.3571423 1 0.3333328 0.5 0.3571423 0.5 0.3333328 1 0.3095232 0.5 0.3333328 0.5 0.3095232 1 0.2857137 0.5 0.3095232 0.5 0.2857137 1 0.2619042 0.5 0.2857137 0.5 0.2619042 1 0.2380946 0.5 0.2619042 0.5 0.2380946 1 0.2142851 0.5 0.2380946 0.5 0.2142851 1 0.1904756 0.5 0.2142851 0.5 0.1904756 1 0.1666661 0.5 0.1904756 0.5 0.1666661 1 0.1428565 0.5 0.1666661 0.5 0.1428565 1 0.1190471 0.5 0.1428565 0.5 0.1190471 1 0.09523755 0.5 0.1190471 0.5 0.09523755 1 0.071428 0.5 0.09523755 0.5 0.071428 1 0.0476185 0.5 0.071428 0.5 0.1792587 0.4793375 0.1458679 0.03376746 0.4734097 0.3376818 0.0476185 1 0.02380895 0.5 0.0476185 0.5 0.02380895 1 -5.40167e-7 0.5 0.02380895 0.5 0.8541321 0.4662325 0.8207412 0.02066248 0.5421539 0.37 1 1 0.9761905 1 0.9761905 0.5 0.9761905 1 0.9523809 1 0.9523809 0.5 0.9523809 1 0.9285714 1 0.9285714 0.5 0.9285714 1 0.9047618 1 0.9047618 0.5 0.9047618 1 0.8809522 1 0.8809522 0.5 0.8809522 1 0.8571427 1 0.8571427 0.5 0.8571427 1 0.8333331 1 0.8333331 0.5 0.8333331 1 0.8095236 1 0.8095236 0.5 0.8095236 1 0.785714 1 0.785714 0.5 0.785714 1 0.7619045 1 0.7619045 0.5 0.7619045 1 0.7380949 1 0.7380949 0.5 0.7380949 1 0.7142854 1 0.7142854 0.5 0.7142854 1 0.6904758 1 0.6904758 0.5 0.6904758 1 0.6666663 1 0.6666663 0.5 0.6666663 1 0.6428567 1 0.6428567 0.5 0.6428567 1 0.6190472 1 0.6190472 0.5 0.6190472 1 0.5952376 1 0.5952376 0.5 0.5952376 1 0.5714281 1 0.5714281 0.5 0.5714281 1 0.5476185 1 0.5476185 0.5 0.5476185 1 0.523809 1 0.523809 0.5 0.523809 1 0.4999994 1 0.4999994 0.5 0.4999994 1 0.4761899 1 0.4761899 0.5 0.4761899 1 0.4523804 1 0.4523804 0.5 0.4523804 1 0.4285709 1 0.4285709 0.5 0.4285709 1 0.4047613 1 0.4047613 0.5 0.4047613 1 0.3809518 1 0.3809518 0.5 0.3809518 1 0.3571423 1 0.3571423 0.5 0.3571423 1 0.3333328 1 0.3333328 0.5 0.3333328 1 0.3095232 1 0.3095232 0.5 0.3095232 1 0.2857137 1 0.2857137 0.5 0.2857137 1 0.2619042 1 0.2619042 0.5 0.2619042 1 0.2380946 1 0.2380946 0.5 0.2380946 1 0.2142851 1 0.2142851 0.5 0.2142851 1 0.1904756 1 0.1904756 0.5 0.1904756 1 0.1666661 1 0.1666661 0.5 0.1666661 1 0.1428565 1 0.1428565 0.5 0.1428565 1 0.1190471 1 0.1190471 0.5 0.1190471 1 0.09523755 1 0.09523755 0.5 0.09523755 1 0.071428 1 0.071428 0.5 0.071428 1 0.0476185 1 0.0476185 0.5 0.3207412 0.4793375 0.2857701 0.4873194 0.1792587 0.4793375 0.2857701 0.4873194 0.25 0.49 0.1792587 0.4793375 0.25 0.49 0.2142298 0.4873194 0.1792587 0.4793375 0.1792587 0.4793375 0.1458679 0.4662325 0.1148031 0.4482973 0.1148031 0.4482973 0.08675849 0.4259324 0.0623604 0.3996376 0.0623604 0.3996376 0.04215389 0.37 0.01067107 0.2679352 0.04215389 0.37 0.02659028 0.3376818 0.01067107 0.2679352 0.02659028 0.3376818 0.01601725 0.303405 0.01067107 0.2679352 0.01067107 0.2679352 0.01067107 0.2320647 0.04215389 0.1299999 0.01067107 0.2320647 0.01601725 0.196595 0.04215389 0.1299999 0.01601725 0.196595 0.02659028 0.1623181 0.04215389 0.1299999 0.04215389 0.1299999 0.0623604 0.1003624 0.08675849 0.07406753 0.08675849 0.07406753 0.1148031 0.05170267 0.04215389 0.1299999 0.1148031 0.05170267 0.1458679 0.03376746 0.04215389 0.1299999 0.1458679 0.03376746 0.1792587 0.02066248 0.2142298 0.01268059 0.2142298 0.01268059 0.25 0.00999999 0.2857701 0.01268059 0.2857701 0.01268059 0.3207412 0.02066248 0.3541321 0.03376746 0.3541321 0.03376746 0.3851968 0.05170267 0.4132415 0.07406753 0.4132415 0.07406753 0.4376395 0.1003624 0.4578461 0.1299999 0.4578461 0.1299999 0.4734097 0.1623181 0.4839827 0.196595 0.4839827 0.196595 0.4893289 0.2320647 0.4734097 0.3376818 0.4893289 0.2320647 0.4893289 0.2679352 0.4734097 0.3376818 0.4893289 0.2679352 0.4839827 0.303405 0.4734097 0.3376818 0.4734097 0.3376818 0.4578461 0.37 0.3851968 0.4482973 0.4578461 0.37 0.4376395 0.3996376 0.3851968 0.4482973 0.4376395 0.3996376 0.4132415 0.4259324 0.3851968 0.4482973 0.3851968 0.4482973 0.3541321 0.4662325 0.3207412 0.4793375 0.1792587 0.4793375 0.1148031 0.4482973 0.01067107 0.2679352 0.1148031 0.4482973 0.0623604 0.3996376 0.01067107 0.2679352 0.1458679 0.03376746 0.2142298 0.01268059 0.2857701 0.01268059 0.2857701 0.01268059 0.3541321 0.03376746 0.4132415 0.07406753 0.4132415 0.07406753 0.4578461 0.1299999 0.4734097 0.3376818 0.4578461 0.1299999 0.4839827 0.196595 0.4734097 0.3376818 0.3851968 0.4482973 0.3207412 0.4793375 0.4734097 0.3376818 0.3207412 0.4793375 0.1792587 0.4793375 0.4734097 0.3376818 0.01067107 0.2679352 0.04215389 0.1299999 0.1458679 0.03376746 0.1458679 0.03376746 0.2857701 0.01268059 0.4132415 0.07406753 0.1792587 0.4793375 0.01067107 0.2679352 0.1458679 0.03376746 0.1458679 0.03376746 0.4132415 0.07406753 0.4734097 0.3376818 0.0476185 1 0.02380895 1 0.02380895 0.5 0.02380895 1 -5.40167e-7 1 -5.40167e-7 0.5 0.7142299 0.4873194 0.75 0.49 0.7857701 0.4873194 0.7857701 0.4873194 0.8207412 0.4793375 0.8541321 0.4662325 0.8541321 0.4662325 0.8851968 0.4482973 0.9132415 0.4259324 0.9132415 0.4259324 0.9376395 0.3996376 0.9578461 0.37 0.9578461 0.37 0.9734097 0.3376818 0.9839827 0.303405 0.9839827 0.303405 0.9893289 0.2679352 0.9578461 0.37 0.9893289 0.2679352 0.9893289 0.2320647 0.9578461 0.37 0.9893289 0.2320647 0.9839827 0.196595 0.9734097 0.1623181 0.9734097 0.1623181 0.9578461 0.1299999 0.9893289 0.2320647 0.9578461 0.1299999 0.9376395 0.1003624 0.9893289 0.2320647 0.9376395 0.1003624 0.9132415 0.07406753 0.8207412 0.02066248 0.9132415 0.07406753 0.8851968 0.05170267 0.8207412 0.02066248 0.8851968 0.05170267 0.8541321 0.03376746 0.8207412 0.02066248 0.8207412 0.02066248 0.7857701 0.01268059 0.75 0.00999999 0.75 0.00999999 0.7142299 0.01268059 0.6792588 0.02066248 0.6792588 0.02066248 0.6458679 0.03376746 0.6148032 0.05170267 0.6148032 0.05170267 0.5867585 0.07406753 0.5623605 0.1003624 0.5623605 0.1003624 0.5421539 0.1299999 0.5106711 0.2320647 0.5421539 0.1299999 0.5265903 0.1623181 0.5106711 0.2320647 0.5265903 0.1623181 0.5160173 0.196595 0.5106711 0.2320647 0.5106711 0.2320647 0.5106711 0.2679352 0.5421539 0.37 0.5106711 0.2679352 0.5160173 0.303405 0.5421539 0.37 0.5160173 0.303405 0.5265903 0.3376818 0.5421539 0.37 0.5421539 0.37 0.5623605 0.3996376 0.5867585 0.4259324 0.5867585 0.4259324 0.6148032 0.4482973 0.5421539 0.37 0.6148032 0.4482973 0.6458679 0.4662325 0.5421539 0.37 0.6458679 0.4662325 0.6792588 0.4793375 0.7142299 0.4873194 0.7142299 0.4873194 0.7857701 0.4873194 0.8541321 0.4662325 0.8541321 0.4662325 0.9132415 0.4259324 0.9578461 0.37 0.8207412 0.02066248 0.75 0.00999999 0.5623605 0.1003624 0.75 0.00999999 0.6792588 0.02066248 0.5623605 0.1003624 0.6792588 0.02066248 0.6148032 0.05170267 0.5623605 0.1003624 0.6458679 0.4662325 0.7142299 0.4873194 0.5421539 0.37 0.7142299 0.4873194 0.8541321 0.4662325 0.5421539 0.37 0.8541321 0.4662325 0.9578461 0.37 0.9893289 0.2320647 0.9893289 0.2320647 0.9376395 0.1003624 0.8207412 0.02066248 0.5623605 0.1003624 0.5106711 0.2320647 0.8207412 0.02066248 0.5106711 0.2320647 0.5421539 0.37 0.8207412 0.02066248 0.8541321 0.4662325 0.9893289 0.2320647 0.8207412 0.02066248</float_array>
          <technique_common>
            <accessor source="#Cylinder_017-mesh-map-0-array" count="492" stride="2">
              <param name="S" type="float"/>
              <param name="T" type="float"/>
            </accessor>
          </technique_common>
        </source>
        <vertices id="Cylinder_017-mesh-vertices">
          <input semantic="POSITION" source="#Cylinder_017-mesh-positions"/>
        </vertices>
        <triangles count="164">
          <input semantic="VERTEX" source="#Cylinder_017-mesh-vertices" offset="0"/>
          <input semantic="NORMAL" source="#Cylinder_017-mesh-normals" offset="1"/>
          <input semantic="TEXCOORD" source="#Cylinder_017-mesh-map-0" offset="2" set="0"/>
          <p>1 0 0 2 0 1 0 0 2 3 1 3 4 1 4 2 1 5 5 2 6 6 2 7 4 2 8 7 3 9 8 3 10 6 3 11 9 4 12 10 4 13 8 4 14 11 5 15 12 5 16 10 5 17 13 6 18 14 6 19 12 6 20 15 7 21 16 7 22 14 7 23 17 8 24 18 8 25 16 8 26 19 9 27 20 9 28 18 9 29 21 10 30 22 10 31 20 10 32 23 11 33 24 11 34 22 11 35 25 12 36 26 12 37 24 12 38 27 13 39 28 13 40 26 13 41 29 14 42 30 14 43 28 14 44 31 15 45 32 15 46 30 15 47 33 16 48 34 16 49 32 16 50 35 17 51 36 17 52 34 17 53 37 18 54 38 18 55 36 18 56 39 19 57 40 19 58 38 19 59 41 20 60 42 20 61 40 20 62 43 21 63 44 21 64 42 21 65 45 22 66 46 22 67 44 22 68 47 23 69 48 23 70 46 23 71 49 24 72 50 24 73 48 24 74 51 25 75 52 25 76 50 25 77 53 26 78 54 26 79 52 26 80 55 27 81 56 27 82 54 27 83 57 28 84 58 28 85 56 28 86 59 29 87 60 29 88 58 29 89 61 30 90 62 30 91 60 30 92 63 31 93 64 31 94 62 31 95 65 32 96 66 32 97 64 32 98 67 33 99 68 33 100 66 33 101 69 34 102 70 34 103 68 34 104 71 35 105 72 35 106 70 35 107 73 36 108 74 36 109 72 36 110 75 37 111 76 37 112 74 37 113 77 38 114 78 38 115 76 38 116 79 39 117 80 39 118 78 39 119 81 40 120 49 40 121 17 40 122 81 41 123 82 41 124 80 41 125 83 42 126 0 42 127 82 42 128 6 43 129 38 43 130 70 43 131 1 44 132 3 44 133 2 44 134 3 45 135 5 45 136 4 45 137 5 46 138 7 46 139 6 46 140 7 47 141 9 47 142 8 47 143 9 48 144 11 48 145 10 48 146 11 49 147 13 49 148 12 49 149 13 50 150 15 50 151 14 50 152 15 51 153 17 51 154 16 51 155 17 52 156 19 52 157 18 52 158 19 53 159 21 53 160 20 53 161 21 54 162 23 54 163 22 54 164 23 55 165 25 55 166 24 55 167 25 56 168 27 56 169 26 56 170 27 57 171 29 57 172 28 57 173 29 58 174 31 58 175 30 58 176 31 59 177 33 59 178 32 59 179 33 60 180 35 60 181 34 60 182 35 61 183 37 61 184 36 61 185 37 62 186 39 62 187 38 62 188 39 63 189 41 63 190 40 63 191 41 64 192 43 64 193 42 64 194 43 65 195 45 65 196 44 65 197 45 66 198 47 66 199 46 66 200 47 67 201 49 67 202 48 67 203 49 68 204 51 68 205 50 68 206 51 69 207 53 69 208 52 69 209 53 70 210 55 70 211 54 70 212 55 71 213 57 71 214 56 71 215 57 72 216 59 72 217 58 72 218 59 73 219 61 73 220 60 73 221 61 74 222 63 74 223 62 74 224 63 75 225 65 75 226 64 75 227 65 76 228 67 76 229 66 76 230 67 77 231 69 77 232 68 77 233 69 78 234 71 78 235 70 78 236 71 79 237 73 79 238 72 79 239 73 80 240 75 80 241 74 80 242 75 81 243 77 81 244 76 81 245 77 82 246 79 82 247 78 82 248 79 83 249 81 83 250 80 83 251 5 84 252 3 84 253 81 84 254 3 85 255 1 85 256 81 85 257 1 86 258 83 86 259 81 86 260 81 87 261 79 87 262 77 87 263 77 88 264 75 88 265 73 88 266 73 89 267 71 89 268 65 89 269 71 90 270 69 90 271 65 90 272 69 91 273 67 91 274 65 91 275 65 92 276 63 92 277 57 92 278 63 93 279 61 93 280 57 93 281 61 94 282 59 94 283 57 94 284 57 95 285 55 95 286 53 95 287 53 96 288 51 96 289 57 96 290 51 97 291 49 97 292 57 97 293 49 98 294 47 98 295 45 98 296 45 99 297 43 99 298 41 99 299 41 100 300 39 100 301 37 100 302 37 101 303 35 101 304 33 101 305 33 102 306 31 102 307 29 102 308 29 103 309 27 103 310 25 103 311 25 104 312 23 104 313 17 104 314 23 105 315 21 105 316 17 105 317 21 106 318 19 106 319 17 106 320 17 107 321 15 107 322 9 107 323 15 108 324 13 108 325 9 108 326 13 109 327 11 109 328 9 109 329 9 110 330 7 110 331 5 110 332 81 111 333 77 111 334 65 111 335 77 112 336 73 112 337 65 112 338 49 113 339 45 113 340 41 113 341 41 114 342 37 114 343 33 114 344 33 115 345 29 115 346 17 115 347 29 116 348 25 116 349 17 116 350 9 117 351 5 117 352 17 117 353 5 118 354 81 118 355 17 118 356 65 119 357 57 119 358 49 119 359 49 120 360 41 120 361 33 120 362 81 121 363 65 121 364 49 121 365 49 122 366 33 122 367 17 122 368 81 123 369 83 123 370 82 123 371 83 124 372 1 124 373 0 124 374 82 125 375 0 125 376 2 125 377 2 126 378 4 126 379 6 126 380 6 127 381 8 127 382 10 127 383 10 128 384 12 128 385 14 128 386 14 129 387 16 129 388 18 129 389 18 130 390 20 130 391 14 130 392 20 131 393 22 131 394 14 131 395 22 132 396 24 132 397 26 132 398 26 133 399 28 133 400 22 133 401 28 134 402 30 134 403 22 134 404 30 135 405 32 135 406 38 135 407 32 136 408 34 136 409 38 136 410 34 137 411 36 137 412 38 137 413 38 138 414 40 138 415 42 138 416 42 139 417 44 139 418 46 139 419 46 140 420 48 140 421 50 140 422 50 141 423 52 141 424 54 141 425 54 142 426 56 142 427 62 142 428 56 143 429 58 143 430 62 143 431 58 144 432 60 144 433 62 144 434 62 145 435 64 145 436 70 145 437 64 146 438 66 146 439 70 146 440 66 147 441 68 147 442 70 147 443 70 148 444 72 148 445 74 148 446 74 149 447 76 149 448 70 149 449 76 150 450 78 150 451 70 150 452 78 151 453 80 151 454 82 151 455 82 152 456 2 152 457 6 152 458 6 153 459 10 153 460 14 153 461 38 154 462 42 154 463 54 154 464 42 155 465 46 155 466 54 155 467 46 156 468 50 156 469 54 156 470 78 157 471 82 157 472 70 157 473 82 158 474 6 158 475 70 158 476 6 159 477 14 159 478 22 159 479 22 160 480 30 160 481 38 160 482 54 161 483 62 161 484 38 161 485 62 162 486 70 162 487 38 162 488 6 163 489 22 163 490 38 163 491</p>
        </triangles>
      </mesh>
    </geometry>
  </library_geometries>
  <library_visual_scenes>
    <visual_scene id="Scene" name="Scene">
      <node id="Left-Idler-Phys" name="Left-Idler-Phys" type="NODE">
        <matrix sid="transform">1 0 0 0 0 -4.37114e-8 -1 0 0 1 -4.37114e-8 0 0 0 0 1</matrix>
        <instance_geometry url="#Cylinder_017-mesh" name="Left-Idler-Phys"/>
      </node>
    </visual_scene>
  </library_visual_scenes>
  <scene>
    <instance_visual_scene url="#Scene"/>
  </scene>
</COLLADA>