<?xml version="1.0" encoding="utf-8"?>
<COLLADA xmlns="http://www.collada.org/2005/11/COLLADASchema" version="1.4.1" xmlns:xsi="http://www.w3.org/2001/XMLSchema-instance">
  <asset>
    <contributor>
      <author>Blender User</author>
      <authoring_tool>Blender 4.5.4 LTS commit date:2025-10-27, commit time:12:46, hash:b3efe983cc58</authoring_tool>
    </contributor>
    <created>2025-11-10T16:03:04</created>
    <modified>2025-11-10T16:03:04</modified>
    <unit name="millimeter" meter="0.001"/>
    <up_axis>Z_UP</up_axis>
  </asset>
  <library_effects>
    <effect id="White_PLA-effect">
      <profile_COMMON>
        <technique sid="common">
          <lambert>
            <emission>
              <color sid="emission">0 0 0 1</color>
            </emission>
            <diffuse>
              <color sid="diffuse">0.8 0.8 0.8 1</color>
            </diffuse>
            <index_of_refraction>
              <float sid="ior">1.5</float>
            </index_of_refraction>
          </lambert>
        </technique>
      </profile_COMMON>
    </effect>
  </library_effects>
  <library_images/>
  <library_materials>
    <material id="White_PLA-material" name="White PLA">
      <instance_effect url="#White_PLA-effect"/>
    </material>
  </library_materials>
  <library_geometries>
    <geometry id="_7-main-boom_001-mesh" name="17-main-boom.001">
      <mesh>
        <source id="_7-main-boom_001-mesh-positions">
          <float_array id="_7-main-boom_001-mesh-positions-array" count="324">41.86574 -18.69925 12.94672 41.86533 5.100723 12.94672 -1.910377 3.999961 9.815863 -1.909996 -17.60005 9.815863 116.0904 5.102035 91.39181 116.0904 1.202089 91.39181 110.1687 1.201957 94.25417 116.0907 -14.79796 91.39181 116.0908 -18.69795 91.39181 3.35693e-4 -17.6 -9.999983 -7.464371 3.99988 -6.654646 -5.907745 3.999872 -8.068411 -4.089905 3.999912 -9.125388 -2.091202 3.999967 -9.778883 -2.090858 -17.60002 -9.778883 -4.089561 -17.60009 -9.125388 -5.907371 -17.60009 -8.068411 -7.463997 -17.60013 -6.654646 -8.69056 -17.60017 -4.946634 -8.690934 3.999848 -4.946634 -9.532845 -17.60018 -3.01985 -9.533188 3.999816 -3.01985 -9.953545 -17.6002 -0.9595699 -9.953927 3.999807 -0.9595699 -9.934159 -17.60017 1.143167 -9.934502 3.99982 1.143167 -9.475464 -17.60016 3.195322 -9.475823 3.999802 3.195322 -8.597771 -17.60015 5.106199 -8.598145 3.999855 5.106199 -7.33989 -17.60011 6.791304 -7.340256 3.999847 6.791304 -5.757454 -17.60009 8.1761 -5.757812 3.999877 8.1761 -3.920395 -17.6001 9.19937 -3.920776 3.999921 9.19937 105.6569 -18.69816 95.6407 105.6569 -14.79818 95.6407 105.6566 5.10182 95.6407 105.6566 1.201813 95.6407 64.37129 5.101132 27.15284 64.37173 -18.69886 27.15284 110.169 -14.79806 94.25417 78.22686 3.40017 4.883944 86.93093 5.101562 13.47698 83.64479 5.101463 8.025664 111.8517 5.101976 102.4902 116.6372 5.102039 99.73822 111.3119 5.101966 102.1025 112.4601 5.102015 102.7581 113.1106 5.102003 102.8944 113.7754 5.102006 102.8934 114.4255 5.101995 102.7551 115.0329 5.102073 102.4853 115.5717 5.102034 102.0959 116.0182 5.10209 101.6036 116.3534 5.102068 101.0296 116.5627 5.102098 100.3987 50.15515 5.10087 -9.999983 -9.91821e-5 4.000002 -9.999983 116.6373 1.202017 99.73822 115.0331 1.202011 102.4853 111.3119 1.201989 102.1025 111.8517 1.201992 102.4902 112.4602 1.201993 102.7581 114.4255 1.202015 102.7551 113.7754 1.20196 102.8934 113.1107 1.202022 102.8944 115.5717 1.202049 102.0959 116.0183 1.202064 101.6036 116.3535 1.202049 101.0296 116.5628 1.202011 100.3987 76.72204 3.401321 -7.214205 76.72212 -16.99864 -7.214205 54.28586 -16.99906 -7.809965 78.22688 -16.9998 4.883944 111.3123 -18.69808 102.1025 111.3122 -14.79803 102.1025 111.8522 -18.69804 102.4902 111.8521 -14.79802 102.4902 112.4604 -18.69799 102.7581 112.4604 -14.79805 102.7581 113.1111 -18.69804 102.8944 113.1109 -14.79795 102.8944 113.7757 -18.69796 102.8934 113.7756 -14.79802 102.8934 114.4258 -18.69797 102.7551 114.4258 -14.79796 102.7551 115.0333 -18.69797 102.4853 115.0333 -14.79796 102.4853 115.5721 -18.69795 102.0959 115.5719 -14.79792 102.0959 116.0186 -18.69794 101.6036 116.0186 -14.79795 101.6036 116.3538 -18.69791 101.0296 116.3537 -14.79793 101.0296 116.5631 -18.69795 100.3987 116.5631 -14.79796 100.3987 116.6376 -18.69795 99.73822 116.6375 -14.79796 99.73822 83.40689 -18.69854 7.630232 86.9313 -18.69848 13.47698 74.40325 -16.9987 -9.999983 60.64274 -16.99896 -9.999983 50.15559 -18.69915 -9.999983 60.6427 3.401067 -9.999983 74.40316 3.401313 -9.999983 54.28933 3.402678 -7.807898</float_array>
          <technique_common>
            <accessor source="#_7-main-boom_001-mesh-positions-array" count="108" stride="3">
              <param name="X" type="float"/>
              <param name="Y" type="float"/>
              <param name="Z" type="float"/>
            </accessor>
          </technique_common>
        </source>
        <source id="_7-main-boom_001-mesh-normals">
          <float_array id="_7-main-boom_001-mesh-normals-array" count="636">-0.9797822 -1.73038e-5 -0.2000672 -0.7525039 -5.88835e-6 0.6585878 -0.1051475 -1.67128e-6 -0.9944567 -0.6723215 -1.16362e-5 -0.7402594 -0.8122566 -1.40572e-5 -0.5833003 -0.9087269 -1.50858e-5 0.4173912 -0.07133823 -1.25988e-6 0.9974521 0 0 -1 -0.9162766 -1.45635e-5 -0.4005461 0.5858924 5.73152e-6 0.8103889 -0.5833676 -1.36944e-5 0.8122082 -0.4029394 -4.72953e-6 0.9152267 0.9937021 1.16636e-5 0.1120541 0.2081492 2.44317e-6 0.9780972 -0.3107705 -4.93939e-6 -0.950485 -0.9999573 -1.58939e-5 0.009237289 -0.6585491 -1.0934e-5 0.7525379 0.4684115 5.26254e-7 -0.8835104 -0.5026533 -8.69965e-6 -0.8644881 0.9923536 1.11339e-6 -0.1234277 -0.5337736 -9.75316e-6 0.8456274 0.2937346 5.04229e-6 0.9558871 0.585887 1.7192e-5 0.8103928 2.12644e-5 -1 3.35615e-6 0.9978609 1.56166e-5 -0.06537288 0.4057934 2.38536e-6 0.9139649 0.7406288 2.17324e-5 0.6719144 0.8635491 2.36522e-5 0.5042649 -0.8564287 -6.70156e-6 0.5162652 -0.2051322 -2.0092e-6 0.9787343 0.863589 1.18258e-5 0.5041964 -0.4866216 -8.07843e-6 0.8736128 -2.47462e-5 1 -3.80508e-5 -0.9759184 -1.62003e-5 0.2181358 -0.2050907 -3.20973e-6 0.978743 -0.5833784 -5.70622e-6 0.8122005 0.936561 2.14361e-5 -0.3505046 0.2081352 8.14329e-7 0.9781001 0.99786 2.73288e-5 -0.06538736 -0.4029986 -1.10424e-5 0.9152006 0.9491186 1.29971e-5 0.3149189 0.8564266 1.31822e-5 -0.5162688 0.4351942 8.71794e-6 0.9003366 -0.8013537 -1.38733e-5 0.5981908 0.949098 2.59934e-5 0.314981 -0.7525022 -1.76648e-5 0.6585899 0.4057934 4.76304e-6 0.9139648 0.001492023 0 0.9999989 0 0 -1 -1.80927e-5 1 -1.35963e-7 -0.2931773 -5.17769e-6 0.9560582 0.001492083 0 0.9999989 0.7407259 2.02866e-5 0.6718073 -2.56663e-6 -1 -5.36092e-5 1.94874e-4 1 -1.69998e-4 2.2862e-5 -1 3.58267e-5 -0.3261592 1.51175e-4 -0.9453149 0.9937098 1.55509e-5 0.1119861 0.7685744 3.15992e-6 -0.6397604 0.4707538 0.115955 -0.8746115 0.4684591 1.00011e-5 -0.8834852 -0.9797787 -1.55732e-5 -0.2000846 -0.7525043 -7.36049e-6 0.6585873 -0.1051429 -2.11686e-6 -0.9944571 -0.6723214 -1.16361e-5 -0.7402593 -0.8122567 -1.40581e-5 -0.5833002 -0.9087296 -1.57278e-5 0.4173852 -0.07133817 -1.22346e-6 0.9974522 0 0 -1 -0.9162819 -1.58585e-5 -0.400534 0.5857943 2.63567e-5 0.8104598 -0.5833784 -1.59772e-5 0.8122004 -0.4029732 -1.10364e-5 0.9152117 0.9937021 1.16636e-5 0.1120541 0.2081352 0 0.9781001 -0.3107705 -4.93956e-6 -0.9504849 -0.9999575 -1.76599e-5 0.00921911 -0.6585473 -1.11652e-5 0.7525394 0.4994037 0.009401738 -0.8663185 -0.5026596 -7.98956e-6 -0.8644844 0.9923529 4.08244e-6 -0.1234326 -0.5337731 -9.15428e-6 0.8456278 0.2937372 5.88272e-6 0.9558862 0.5858216 3.43804e-6 0.8104401 -0.02190905 -0.9997287 -0.007919371 1.78029e-5 -1 1.0426e-6 1.64807e-5 -1 1.54852e-6 1.67501e-5 -1 0 1.70074e-5 -1 4.40446e-7 1.9411e-5 -1 -8.14594e-7 2.21856e-5 -1 -3.27393e-6 1.68889e-4 -1 1.16504e-4 -2.74674e-5 -1 -5.59089e-5 5.24631e-6 -1 -3.19271e-5 6.57137e-5 -1 1.40935e-4 1.15709e-4 -0.9999998 6.1265e-4 -2.08236e-4 -0.9999998 6.57997e-4 2.27982e-5 -1 9.40122e-6 3.58029e-5 -1 3.86933e-5 2.26898e-5 -1 -6.12305e-5 2.11767e-5 -1 -5.54639e-6 1.92024e-5 -1 -1.32684e-6 -0.02492982 -0.9996863 -0.002406001 2.38402e-5 -1 -3.96806e-7 -2.96004e-6 -1 -5.86973e-6 1.37601e-5 -1 -5.73141e-7 2.66048e-5 -1 5.04183e-6 1.27327e-5 -1 -2.85385e-6 2.16244e-5 -1 3.53147e-6 3.15808e-5 -1 1.24079e-5 1.25491e-5 -1 -8.54678e-6 1.02001e-5 -1 -1.56726e-5 7.19501e-5 -1 1.23741e-4 1.12243e-5 -1 -1.42737e-5 6.29751e-6 -1 -2.27469e-5 0.997861 1.17125e-5 -0.06537103 0.4057977 1.58768e-6 0.913963 0.7406746 1.01427e-5 0.671864 0.863549 2.36504e-5 0.5042649 -0.8564291 -1.56487e-5 0.5162647 -0.8564293 -6.70162e-6 0.5162643 -0.856429 -1.47016e-5 0.5162649 -0.2051114 -5.61747e-6 0.9787387 0.863589 1.18258e-5 0.5041964 -0.486617 -8.59396e-6 0.8736155 -9.90159e-6 1 7.54696e-6 -1.54142e-5 1 0 -2.75739e-5 1 3.71115e-7 -1.39673e-5 1 -1.61088e-6 2.69617e-4 1 1.92301e-4 -1.2223e-4 1 -9.49774e-5 3.37245e-5 1 1.42161e-4 -1.59117e-4 1 -3.54838e-4 -3.22495e-4 0.9999996 8.46305e-4 9.38919e-5 0.9999999 4.24901e-4 -1.4554e-5 1 -6.79152e-6 -3.42973e-5 1 -5.12622e-5 -0.97592 -1.55118e-5 0.2181289 -0.2051183 -8.02511e-6 0.9787372 -0.5833839 -6.84751e-6 0.8121966 0.9365605 1.50495e-5 -0.3505061 0.9365604 1.44108e-5 -0.3505061 0.9365605 -7.32871e-6 -0.3505058 0.2081492 3.25759e-6 0.9780971 0.997861 -7.80839e-6 -0.06537103 -0.403024 -6.30744e-6 0.9151894 0.949122 1.11404e-5 0.3149086 0.8564336 1.67663e-5 -0.5162574 0.4351915 9.96071e-6 0.9003379 -0.8013555 -1.35864e-5 0.5981885 0.9491186 1.48534e-5 0.3149189 -0.7524986 -5.88835e-6 0.6585939 0.4058658 1.82612e-5 0.9139327 0.001492083 0 0.9999989 0 0 -1 -1.19405e-5 1 4.66628e-5 -6.99607e-5 1 -8.24267e-5 -5.68394e-6 1 1.43439e-5 -4.71394e-5 1 -5.46055e-6 -4.58081e-5 1 1.90683e-5 4.46505e-5 1 -4.84566e-5 -6.53032e-5 1 5.32748e-5 -1.50773e-5 1 -1.58036e-5 -2.17992e-5 1 0 -0.02496558 0.9996854 -0.00240463 -3.91212e-5 1 -4.68761e-6 -2.6998e-5 1 -2.37495e-5 -1.75217e-5 1 -3.5446e-7 -0.02194321 0.9997279 -0.007920861 -1.85395e-5 1 8.67362e-7 -2.20405e-5 1 -4.90778e-6 -6.29154e-4 0.9999998 -1.60425e-4 -2.03014e-5 1 8.72924e-7 -1.71505e-5 1 -7.57084e-6 -1.08119e-4 1 -1.01347e-4 -2.74701e-5 1 -2.81927e-5 4.50514e-4 0.9999998 5.22885e-4 1.48004e-4 0.9999998 6.1965e-4 9.05182e-5 1 -3.4799e-4 -4.07864e-6 1 1.51014e-4 -3.0255e-5 1 1.50674e-5 -3.0235e-5 1 2.81071e-5 -1.98681e-5 1 1.937e-6 -1.64821e-5 1 1.65227e-6 -1.50353e-5 1 2.94213e-6 -2.58983e-5 1 -2.72747e-5 -0.2931773 -5.17769e-6 0.9560581 0.001492321 0 0.9999989 0.7406746 7.24477e-6 0.671864 1.8851e-5 -1 6.21805e-6 3.73958e-5 -1 -1.00822e-4 -3.30319e-5 1 9.92542e-5 -1.78808e-5 1 1.18029e-5 1.76297e-5 -1 -9.83911e-6 -1.01277e-5 -1 -9.80556e-6 1.50666e-4 -1 1.1046e-4 1.78166e-4 -1 1.30621e-4 -3.72746e-5 -1 -1.4952e-4 -4.70033e-6 -1 3.55535e-6 -9.45172e-5 -0.9999997 -8.43971e-4 3.53799e-5 -1 4.1043e-5 3.13449e-6 -1 -3.55936e-6 5.23396e-6 -1 0 3.17633e-5 -1 -4.95353e-7 6.60067e-6 -1 3.16998e-6 -0.3257237 -6.69995e-7 -0.945465 0.9937021 2.72149e-5 0.1120541 0.7685754 3.44927e-6 -0.6397591 0.4684364 -6.10362e-5 -0.8834972 0.4684427 3.97427e-5 -0.8834939 0.4684394 1.09541e-4 -0.8834956 0.4684528 8.48451e-6 -0.8834885</float_array>
          <technique_common>
            <accessor source="#_7-main-boom_001-mesh-normals-array" count="212" stride="3">
              <param name="X" type="float"/>
              <param name="Y" type="float"/>
              <param name="Z" type="float"/>
            </accessor>
          </technique_common>
        </source>
        <vertices id="_7-main-boom_001-mesh-vertices">
          <input semantic="POSITION" source="#_7-main-boom_001-mesh-positions"/>
        </vertices>
        <triangles material="White_PLA-material" count="212">
          <input semantic="VERTEX" source="#_7-main-boom_001-mesh-vertices" offset="0"/>
          <input semantic="NORMAL" source="#_7-main-boom_001-mesh-normals" offset="1"/>
          <p>23 0 20 0 22 0 62 1 38 1 39 1 59 2 14 2 13 2 17 3 11 3 16 3 19 4 17 4 18 4 28 5 27 5 26 5 0 6 2 6 3 6 102 7 105 7 106 7 21 8 18 8 20 8 54 9 61 9 68 9 78 10 77 10 76 10 64 11 46 11 63 11 97 12 98 12 99 12 51 13 65 13 52 13 14 14 12 14 13 14 23 15 24 15 25 15 33 16 30 16 32 16 43 17 100 17 75 17 12 18 16 18 11 18 73 19 43 19 75 19 1 20 41 20 40 20 42 21 39 21 37 21 89 22 90 22 91 22 20 23 18 23 9 23 99 24 8 24 7 24 89 25 86 25 88 25 90 26 93 26 91 26 69 27 56 27 55 27 39 28 38 28 40 28 50 29 64 29 67 29 93 30 94 30 95 30 32 31 35 31 33 31 91 32 97 32 83 32 27 33 24 33 26 33 82 34 81 34 80 34 63 35 48 35 62 35 5 36 7 36 44 36 85 37 86 37 87 37 5 38 47 38 60 38 78 39 81 39 79 39 94 40 97 40 95 40 101 41 45 41 44 41 42 42 5 42 6 42 28 43 31 43 29 43 70 44 57 44 56 44 37 45 76 45 77 45 61 46 52 46 65 46 67 47 51 47 50 47 9 48 58 48 104 48 58 49 1 49 40 49 35 50 3 50 2 50 82 51 85 51 83 51 54 52 69 52 55 52 75 53 74 53 103 53 105 54 107 54 43 54 71 55 68 55 67 55 105 56 74 56 107 56 71 57 47 57 57 57 73 58 106 58 72 58 43 59 58 59 45 59 58 60 107 60 74 60 23 61 21 61 20 61 62 62 48 62 38 62 59 63 9 63 14 63 17 64 10 64 11 64 19 65 10 65 17 65 28 66 29 66 27 66 0 67 1 67 2 67 102 68 103 68 105 68 21 69 19 69 18 69 54 70 53 70 61 70 78 71 79 71 77 71 64 72 49 72 46 72 97 73 96 73 98 73 51 74 66 74 65 74 14 75 15 75 12 75 23 76 22 76 24 76 33 77 31 77 30 77 43 78 45 78 100 78 12 79 15 79 16 79 73 80 72 80 43 80 1 81 0 81 41 81 42 82 6 82 39 82 89 83 88 83 90 83 9 84 104 84 0 84 104 85 100 85 41 85 0 86 104 86 41 86 100 87 101 87 41 87 101 88 8 88 41 88 8 89 98 89 36 89 98 90 96 90 76 90 96 91 94 91 88 91 94 92 92 92 90 92 88 93 94 93 90 93 88 94 86 94 82 94 86 95 84 95 82 95 82 96 80 96 78 96 88 97 78 97 96 97 78 98 76 98 96 98 82 99 78 99 88 99 76 100 36 100 98 100 36 101 41 101 8 101 0 102 3 102 9 102 3 103 34 103 9 103 34 104 32 104 9 104 32 105 30 105 9 105 30 106 28 106 9 106 28 107 26 107 9 107 26 108 24 108 9 108 24 109 22 109 9 109 22 110 20 110 9 110 14 111 9 111 18 111 16 112 15 112 14 112 18 113 17 113 14 113 17 114 16 114 14 114 99 115 98 115 8 115 89 116 87 116 86 116 90 117 92 117 93 117 69 118 70 118 56 118 40 119 41 119 37 119 41 120 36 120 37 120 37 121 39 121 40 121 50 122 49 122 64 122 93 123 92 123 94 123 32 124 34 124 35 124 97 125 99 125 77 125 99 126 7 126 42 126 42 127 37 127 77 127 99 128 42 128 77 128 93 129 95 129 91 129 95 130 97 130 91 130 89 131 91 131 83 131 85 132 87 132 89 132 81 133 83 133 79 133 83 134 85 134 89 134 77 135 79 135 97 135 97 136 79 136 83 136 27 137 25 137 24 137 82 138 83 138 81 138 63 139 46 139 48 139 8 140 101 140 7 140 101 141 44 141 7 141 44 142 4 142 5 142 85 143 84 143 86 143 5 144 4 144 47 144 78 145 80 145 81 145 94 146 96 146 97 146 101 147 100 147 45 147 42 148 7 148 5 148 28 149 30 149 31 149 70 150 71 150 57 150 37 151 36 151 76 151 61 152 53 152 52 152 67 153 66 153 51 153 9 154 59 154 58 154 59 155 13 155 12 155 12 156 11 156 10 156 10 157 19 157 21 157 21 158 23 158 25 158 25 159 27 159 33 159 27 160 29 160 33 160 29 161 31 161 33 161 33 162 35 162 2 162 33 163 2 163 59 163 2 164 1 164 59 164 10 165 21 165 25 165 59 166 12 166 10 166 45 167 58 167 40 167 58 168 59 168 1 168 4 169 44 169 40 169 44 170 45 170 40 170 57 171 47 171 56 171 47 172 4 172 38 172 48 173 47 173 38 173 55 174 56 174 53 174 53 175 56 175 47 175 53 176 54 176 55 176 51 177 52 177 53 177 49 178 50 178 46 178 50 179 51 179 53 179 48 180 46 180 53 180 53 181 46 181 50 181 40 182 38 182 4 182 25 183 33 183 59 183 10 184 25 184 59 184 53 185 47 185 48 185 35 186 34 186 3 186 82 187 84 187 85 187 54 188 68 188 69 188 102 189 73 189 103 189 73 190 75 190 103 190 43 191 72 191 105 191 72 192 106 192 105 192 6 193 5 193 60 193 60 194 71 194 67 194 71 195 70 195 68 195 70 196 69 196 68 196 68 197 61 197 67 197 61 198 65 198 67 198 65 199 66 199 67 199 67 200 64 200 60 200 64 201 63 201 60 201 63 202 62 202 60 202 62 203 39 203 6 203 6 204 60 204 62 204 105 205 103 205 74 205 71 206 60 206 47 206 73 207 102 207 106 207 43 208 107 208 58 208 74 209 75 209 104 209 75 210 100 210 104 210 104 211 58 211 74 211</p>
        </triangles>
      </mesh>
    </geometry>
  </library_geometries>
  <library_visual_scenes>
    <visual_scene id="Scene" name="Scene">
      <node id="_7-main-boom-Phys" name="17-main-boom-Phys" type="NODE">
        <matrix sid="transform">1.19249e-8 0 -1 0 0 1 0 0 1 0 1.19249e-8 0 0 0 0 1</matrix>
        <instance_geometry url="#_7-main-boom_001-mesh" name="17-main-boom-Phys">
          <bind_material>
            <technique_common>
              <instance_material symbol="White_PLA-material" target="#White_PLA-material"/>
            </technique_common>
          </bind_material>
        </instance_geometry>
      </node>
    </visual_scene>
  </library_visual_scenes>
  <scene>
    <instance_visual_scene url="#Scene"/>
  </scene>
</COLLADA>